<?xml version="1.0" encoding="UTF-8"?>
<svg id="Layer_2" data-name="Layer 2" xmlns="http://www.w3.org/2000/svg" xmlns:xlink="http://www.w3.org/1999/xlink" viewBox="0 0 220 185">
  <defs>
    <style>
      .cls-1 {
        clip-path: url(#clippath-2);
      }

      .cls-2 {
        fill: #010101;
      }

      .cls-2, .cls-3 {
        stroke-width: 0px;
      }

      .cls-3, .cls-4 {
        fill: none;
      }

      .cls-5 {
        clip-path: url(#clippath-1);
      }

      .cls-6 {
        clip-path: url(#clippath);
      }

      .cls-4 {
        stroke: #010101;
        stroke-miterlimit: 10;
        stroke-width: 1.73px;
      }
    </style>
    <clipPath id="clippath">
      <rect class="cls-3" x="3.19" y="10.44" width="214.67" height="174.56"/>
    </clipPath>
    <clipPath id="clippath-1">
      <rect class="cls-3" width="160.53" height="63.78"/>
    </clipPath>
    <clipPath id="clippath-2">
      <rect class="cls-3" x="115.19" y="110.44" width="104.81" height="74.56"/>
    </clipPath>
  </defs>
  <g id="Layer_1-2" data-name="Layer 1">
    <g>
      <g class="cls-6">
        <path class="cls-2" d="m20.67,185l2.06-2.67,12.59-16.28,12.09-15.64c-3.11-.87-8.97-2.85-15.49-6.78-4.6-2.77-8.75-6.04-12.32-9.73-4.41-4.54-7.93-9.68-10.58-15.42-4.23-9.18-5.76-19.26-4.55-29.98.97-8.6,3.46-15.24,4.53-18.08,3.54-9.43,9.28-18.21,17.05-26.1,7.31-7.43,16.22-13.87,26.49-19.16,9.93-5.11,20.69-8.93,31.99-11.36,11.32-2.43,22.63-3.34,33.59-2.69,9.15.54,19.08,2.23,28.72,4.9,10.8,2.99,20.81,7.04,29.75,12.05,10.09,5.65,18.48,12.33,24.93,19.88,7.27,8.5,12.02,18.06,14.13,28.41,2.48,12.16,1.32,25.35-3.36,38.15-4.3,11.79-11.42,22.58-20.03,30.4-3.59,3.26-7.64,6.16-12.02,8.64-4.1,2.31-8.62,4.31-13.42,5.93-8.51,2.88-18.29,4.71-29.08,5.46-4,.28-8.01.4-11.97.4-15.56,0-30.45-1.84-41.95-3.26-2.63-.33-5.28-.7-7.89-1.12l-55.27,24.08Zm-10.86-114.27l.81.3c-6.43,17.11-6.43,32.83-.03,46.73,10.8,23.43,33.97,30.2,38.51,31.31l1.29.32-.81,1.05-12.89,16.66-10.53,13.61,49.55-21.58.25.04c2.67.43,5.39.82,8.07,1.15,29.17,3.6,78,9.64,107.06-16.72,18.14-16.45,27.54-43.97,22.86-66.92-8.81-43.23-62.2-61.88-95.94-63.85C76.88,10.42,25.45,31.53,10.62,71.03l-.81-.3Z"/>
      </g>
      <g class="cls-5">
        <path class="cls-4" d="m22.16,38.81c8.12-7.51,20.44-17.02,37.29-24.17C91.87.89,121.47,4.21,134.79,6.59"/>
      </g>
      <g class="cls-1">
        <path class="cls-4" d="m207.3,134.94c-2.84,4.82-6.77,10.14-12.18,15.14-20.35,18.77-46.64,18.91-54.91,18.62"/>
      </g>
    </g>
  </g>
</svg>