<?xml version="1.0" encoding="UTF-8"?>
<svg id="Layer_2" data-name="Layer 2" xmlns="http://www.w3.org/2000/svg" xmlns:xlink="http://www.w3.org/1999/xlink" viewBox="0 0 119.3 119.3">
  <defs>
    <style>
      .cls-1 {
        fill: #ae8562;
      }

      .cls-1, .cls-2, .cls-3 {
        stroke-width: 0px;
      }

      .cls-4 {
        clip-path: url(#clippath-2);
      }

      .cls-2 {
        fill: none;
      }

      .cls-5 {
        clip-path: url(#clippath-1);
      }

      .cls-3 {
        fill: #fff;
      }

      .cls-6 {
        clip-path: url(#clippath);
      }

      .cls-7 {
        clip-path: url(#clippath-3);
      }
    </style>
    <clipPath id="clippath">
      <rect class="cls-2" width="119.3" height="119.3"/>
    </clipPath>
    <clipPath id="clippath-1">
      <path class="cls-2" d="m59.65,0C26.71,0,0,26.71,0,59.65s26.71,59.65,59.65,59.65,59.65-26.71,59.65-59.65S92.59,0,59.65,0Z"/>
    </clipPath>
    <clipPath id="clippath-2">
      <rect class="cls-2" width="119" height="119"/>
    </clipPath>
    <clipPath id="clippath-3">
      <circle class="cls-2" cx="59.64" cy="59.64" r="59.64"/>
    </clipPath>
  </defs>
  <g id="Layer_1-2" data-name="Layer 1">
    <g>
      <g class="cls-6">
        <g class="cls-5">
          <path class="cls-1" d="m0,0h119.3v119.3H0V0Z"/>
        </g>
      </g>
      <g class="cls-4">
        <g class="cls-7">
          <path class="cls-3" d="m51.87,2.52c-1.91.26-3.81.61-5.68,1.06l-.93-3.89c2.01-.48,4.03-.85,6.07-1.13l.54,3.96Zm-7.56,1.54c-1.86.52-3.7,1.12-5.5,1.82l-1.44-3.73c1.93-.75,3.89-1.4,5.88-1.94l1.06,3.85Zm-7.28,2.54c-1.79.77-3.53,1.61-5.23,2.55l-1.94-3.5c1.82-1.01,3.68-1.92,5.59-2.73l1.57,3.68Zm-6.91,3.52c-1.66.99-3.27,2.07-4.82,3.22l-2.39-3.21c1.66-1.23,3.38-2.38,5.16-3.44l2.05,3.43Zm-6.35,4.4c-1.52,1.21-2.97,2.48-4.35,3.84l-2.79-2.86c1.48-1.45,3.03-2.81,4.65-4.1l2.49,3.13Zm-5.72,5.21c-1.34,1.4-2.61,2.86-3.8,4.39l-3.15-2.47c1.28-1.63,2.64-3.19,4.07-4.68l2.89,2.77Zm-4.97,5.93c-1.14,1.56-2.2,3.18-3.18,4.84l-3.45-2.02c1.05-1.79,2.18-3.51,3.4-5.18l3.23,2.36Zm-4.13,6.53c-.93,1.71-1.77,3.45-2.52,5.24l-3.69-1.54c.8-1.92,1.7-3.79,2.69-5.61l3.52,1.91Zm-3.22,7.03c-.69,1.81-1.28,3.65-1.78,5.52l-3.86-1.04c.53-1.99,1.17-3.96,1.9-5.9l3.74,1.42Zm-2.24,7.41c-.43,1.87-.77,3.77-1.02,5.68l-3.97-.51c.26-2.04.62-4.07,1.08-6.07l3.9.9Zm-1.23,7.6c-.17,1.8-.25,3.6-.25,5.42v.46s-3.99.02-3.99.02v-.47c0-1.94.08-3.87.27-5.79l3.98.38Zm-.2,7.83c.08,1.94.26,3.88.53,5.79l-3.96.56c-.29-2.05-.48-4.11-.57-6.19l4-.16Zm.83,7.68c.34,1.91.77,3.8,1.3,5.66l-3.85,1.09c-.57-1.99-1.03-4.02-1.39-6.06l3.94-.69Zm1.86,7.52c.59,1.83,1.27,3.64,2.04,5.41l-3.67,1.6c-.83-1.89-1.55-3.82-2.18-5.78l3.81-1.22Zm2.85,7.17c.83,1.75,1.75,3.45,2.76,5.11l-3.42,2.07c-1.08-1.77-2.06-3.59-2.95-5.46l3.61-1.72Zm3.79,6.74c1.06,1.62,2.2,3.18,3.42,4.69l-3.11,2.52c-1.3-1.61-2.52-3.29-3.66-5.02l3.34-2.19Zm4.66,6.18c1.27,1.46,2.6,2.86,4.01,4.19l-2.74,2.91c-1.51-1.42-2.93-2.91-4.29-4.48l3.02-2.61Zm5.44,5.49c1.45,1.29,2.96,2.49,4.54,3.63l-2.34,3.24c-1.68-1.21-3.3-2.5-4.85-3.88l2.65-2.99Zm6.13,4.73c1.61,1.08,3.27,2.07,4.97,2.98l-1.88,3.53c-1.82-.97-3.59-2.03-5.31-3.18l2.22-3.32Zm6.69,3.86c1.74.85,3.52,1.61,5.33,2.29l-1.39,3.75c-1.94-.72-3.84-1.53-5.7-2.44l1.76-3.59Zm7.15,2.92c1.84.61,3.71,1.14,5.61,1.56l-.87,3.9c-2.03-.45-4.03-1.01-6.01-1.66l1.26-3.8Zm7.51,1.94c1.89.35,3.79.61,5.71.78l-.34,3.98c-2.06-.18-4.09-.45-6.11-.83l.74-3.93Zm7.66.91c1.01.05,2.02.08,3.04.08.96,0,1.91-.02,2.86-.07l.2,3.99c-1.02.05-2.04.07-3.06.07-1.08,0-2.17-.03-3.24-.08l.21-3.99Zm7.84-.12c1.93-.16,3.83-.41,5.72-.76l.72,3.94c-2.02.37-4.06.64-6.11.81l-.33-3.99Zm7.61-1.14c1.9-.42,3.78-.93,5.62-1.54l1.25,3.8c-1.97.65-3.98,1.2-6.01,1.64l-.86-3.91Zm7.44-2.17c1.81-.66,3.59-1.42,5.33-2.27l1.75,3.6c-1.86.9-3.77,1.71-5.71,2.43l-1.38-3.76Zm7.06-3.15c1.71-.9,3.37-1.89,4.98-2.96l2.21,3.33c-1.72,1.15-3.49,2.2-5.32,3.17l-1.88-3.54Zm6.57-4.06c1.58-1.13,3.09-2.33,4.55-3.61l2.64,3c-1.56,1.37-3.18,2.66-4.86,3.86l-2.33-3.25Zm5.98-4.91c1.41-1.33,2.76-2.72,4.03-4.18l3.02,2.63c-1.36,1.56-2.79,3.05-4.3,4.46l-2.74-2.91Zm5.27-5.66c1.22-1.51,2.37-3.06,3.43-4.68l3.34,2.2c-1.14,1.73-2.36,3.4-3.67,5.01l-3.1-2.53Zm4.47-6.31c1.01-1.66,1.94-3.35,2.78-5.1l3.6,1.73c-.9,1.86-1.89,3.68-2.97,5.45l-3.41-2.08Zm3.59-6.86c.78-1.77,1.46-3.57,2.06-5.4l3.8,1.23c-.64,1.96-1.37,3.89-2.2,5.78l-3.66-1.61Zm2.62-7.25c.54-1.86.97-3.75,1.32-5.66l3.94.71c-.36,2.04-.84,4.06-1.41,6.06l-3.84-1.1Zm1.63-7.55c.28-1.92.46-3.84.55-5.79l3.99.18c-.09,2.08-.29,4.14-.58,6.19l-3.96-.58Zm.6-7.74v-.65c0-1.75-.08-3.49-.23-5.23l3.98-.36c.17,1.86.25,3.73.25,5.61v.65l-4-.02Zm-.44-7.8c-.24-1.92-.57-3.81-.99-5.68l3.9-.89c.46,2.01.81,4.03,1.07,6.07l-3.97.49Zm-1.46-7.57c-.49-1.88-1.08-3.71-1.76-5.53l3.74-1.41c.73,1.94,1.36,3.91,1.89,5.91l-3.87,1.02Zm-2.46-7.31c-.74-1.79-1.57-3.54-2.49-5.25l3.52-1.9c.98,1.83,1.88,3.7,2.67,5.62l-3.69,1.53Zm-3.44-6.94c-.97-1.67-2.03-3.29-3.17-4.85l3.24-2.35c1.21,1.68,2.34,3.41,3.39,5.19l-3.46,2.02Zm-4.33-6.4c-1.19-1.53-2.46-2.99-3.79-4.4l2.89-2.76c1.43,1.5,2.78,3.06,4.05,4.7l-3.15,2.46Zm-5.15-5.77c-1.39-1.36-2.83-2.64-4.34-3.85l2.51-3.12c1.61,1.3,3.16,2.67,4.64,4.11l-2.8,2.86Zm-5.88-5.04c-1.55-1.16-3.15-2.24-4.81-3.23l2.06-3.43c1.78,1.06,3.49,2.22,5.15,3.46l-2.4,3.2Zm-6.48-4.2c-1.69-.95-3.44-1.8-5.22-2.57l1.58-3.68c1.91.82,3.77,1.74,5.58,2.75l-1.95,3.49Zm-6.99-3.3c-1.8-.7-3.63-1.31-5.49-1.83l1.07-3.85c1.99.56,3.95,1.21,5.88,1.96l-1.46,3.72Zm-7.38-2.32c-1.87-.45-3.77-.81-5.68-1.07l.55-3.96c2.05.28,4.07.67,6.07,1.15l-.94,3.89Zm-7.59-1.31c-1.94-.2-3.89-.31-5.85-.31V-2c2.11.01,4.19.12,6.27.33l-.41,3.98Zm-6.04-.31c-1.96,0-3.92.1-5.85.3l-.4-3.98c2.07-.21,4.16-.32,6.26-.32V2Z"/>
        </g>
      </g>
    </g>
  </g>
</svg>