<?xml version="1.0" encoding="UTF-8"?>
<svg id="Layer_2" data-name="Layer 2" xmlns="http://www.w3.org/2000/svg" xmlns:xlink="http://www.w3.org/1999/xlink" viewBox="0 0 68 68">
  <defs>
    <style>
      .cls-1 {
        fill: #010101;
      }

      .cls-1, .cls-2 {
        stroke-width: 0px;
      }

      .cls-2 {
        fill: none;
      }

      .cls-3 {
        clip-path: url(#clippath);
      }
    </style>
    <clipPath id="clippath">
      <rect class="cls-2" x="0" width="68" height="68"/>
    </clipPath>
  </defs>
  <g id="Layer_1-2" data-name="Layer 1">
    <g>
      <path class="cls-1" d="m34,22.55c-6.31,0-11.45,5.14-11.45,11.45s5.14,11.45,11.45,11.45,11.45-5.14,11.45-11.45-5.14-11.45-11.45-11.45Z"/>
      <g class="cls-3">
        <path class="cls-1" d="m44.33,0h-20.67C10.62,0,0,10.61,0,23.67v20.67c0,13.05,10.62,23.67,23.67,23.67h20.67c13.05,0,23.67-10.62,23.67-23.67v-20.67C68,10.61,57.39,0,44.33,0Zm20.33,44.33c0,11.21-9.12,20.33-20.33,20.33h-20.67c-11.21,0-20.33-9.12-20.33-20.33v-20.67C3.33,12.45,12.46,3.33,23.67,3.33h20.67c11.21,0,20.33,9.12,20.33,20.33v20.67Z"/>
      </g>
      <path class="cls-1" d="m34,13.09c-11.53,0-20.91,9.38-20.91,20.91s9.38,20.91,20.91,20.91,20.91-9.38,20.91-20.91-9.38-20.91-20.91-20.91Zm0,35.7c-8.15,0-14.79-6.64-14.79-14.79s6.64-14.79,14.79-14.79,14.79,6.64,14.79,14.79-6.64,14.79-14.79,14.79Z"/>
      <path class="cls-1" d="m53.24,10.39c-2.41,0-4.36,1.96-4.36,4.36s1.96,4.36,4.36,4.36,4.36-1.96,4.36-4.36-1.96-4.36-4.36-4.36Z"/>
    </g>
  </g>
</svg>