<?xml version="1.0" encoding="UTF-8"?>
<svg id="Layer_2" data-name="Layer 2" xmlns="http://www.w3.org/2000/svg" xmlns:xlink="http://www.w3.org/1999/xlink" viewBox="0 0 699.78 336.11">
  <defs>
    <style>
      .cls-1 {
        clip-path: url(#clippath-2);
      }

      .cls-2 {
        fill: #010101;
      }

      .cls-2, .cls-3, .cls-4, .cls-5, .cls-6, .cls-7, .cls-8, .cls-9, .cls-10, .cls-11 {
        stroke-width: 0px;
      }

      .cls-3 {
        fill: #eb303a;
      }

      .cls-4 {
        fill: #ecdec1;
      }

      .cls-5 {
        fill: none;
      }

      .cls-12 {
        clip-path: url(#clippath-1);
      }

      .cls-6 {
        fill: #fff;
      }

      .cls-13 {
        clip-path: url(#clippath);
      }

      .cls-7 {
        fill: #ed2224;
      }

      .cls-8 {
        fill: #c3c5c4;
      }

      .cls-14 {
        clip-path: url(#clippath-3);
      }

      .cls-9 {
        fill: rgba(29, 29, 27, .05);
      }

      .cls-10 {
        fill: rgba(255, 255, 255, .4);
      }

      .cls-11 {
        fill: #edf2f4;
      }
    </style>
    <clipPath id="clippath">
      <rect class="cls-5" y="15.91" width="332" height="320"/>
    </clipPath>
    <clipPath id="clippath-1">
      <rect class="cls-5" y="15.91" width="332" height="45.74"/>
    </clipPath>
    <clipPath id="clippath-2">
      <rect class="cls-5" x="355.78" width="344" height="237"/>
    </clipPath>
    <clipPath id="clippath-3">
      <rect class="cls-5" x="372.64" y="268.11" width="327" height="68"/>
    </clipPath>
  </defs>
  <g id="Layer_1-2" data-name="Layer 1">
    <g>
      <g class="cls-13">
        <path class="cls-11" d="m11.53,335.9h308.95c6.32,0,11.44-5.11,11.44-11.43V27.33c0-6.31-5.13-11.43-11.44-11.43H11.53C5.2,15.9.08,21.02.08,27.33v297.14c0,6.31,5.12,11.43,11.44,11.43"/>
      </g>
      <g class="cls-12">
        <path class="cls-8" d="m331.92,27.33v34.29H.08V27.33C.08,21.01,5.2,15.9,11.53,15.9h308.95c6.32,0,11.44,5.11,11.44,11.43"/>
      </g>
      <path class="cls-11" d="m74.46,38.76c0,3.16-2.56,5.71-5.72,5.71s-5.72-2.56-5.72-5.71,2.56-5.71,5.72-5.71,5.72,2.56,5.72,5.71"/>
      <path class="cls-11" d="m51.57,38.76c0,3.16-2.56,5.71-5.72,5.71s-5.72-2.56-5.72-5.71,2.56-5.71,5.72-5.71,5.72,2.56,5.72,5.71"/>
      <path class="cls-11" d="m28.69,38.76c0,3.16-2.56,5.71-5.72,5.71s-5.72-2.56-5.72-5.71,2.56-5.71,5.72-5.71,5.72,2.56,5.72,5.71"/>
      <path class="cls-3" d="m217.49,210.56H34.41v-114.29h183.08v114.29"/>
      <path class="cls-3" d="m297.59,141.98h-57.21v-45.71h57.21v45.71"/>
      <path class="cls-11" d="m114.51,170.56v-34.29l34.32,17.14-34.32,17.15Z"/>
      <path class="cls-8" d="m80.18,239.13h-45.77c-3.16,0-5.72-2.56-5.72-5.71s2.56-5.71,5.72-5.71h45.77c3.16,0,5.72,2.56,5.72,5.71s-2.56,5.71-5.72,5.71"/>
      <path class="cls-8" d="m137.39,261.98H57.3c-3.16,0-5.72-2.56-5.72-5.71s2.56-5.71,5.72-5.71h80.09c3.16,0,5.72,2.56,5.72,5.71s-2.56,5.71-5.72,5.71"/>
      <path class="cls-8" d="m120.23,284.84h-62.93c-3.16,0-5.72-2.56-5.72-5.71s2.56-5.71,5.72-5.71h62.93c3.16,0,5.72,2.56,5.72,5.71s-2.56,5.71-5.72,5.71"/>
      <path class="cls-8" d="m40.13,256.27c0,3.16-2.56,5.71-5.72,5.71s-5.72-2.56-5.72-5.71,2.56-5.71,5.72-5.71,5.72,2.56,5.72,5.71"/>
      <path class="cls-8" d="m40.13,279.13c0,3.16-2.56,5.71-5.72,5.71s-5.72-2.56-5.72-5.71,2.56-5.71,5.72-5.71,5.72,2.56,5.72,5.71"/>
      <path class="cls-8" d="m171.72,307.7H57.3c-3.16,0-5.72-2.56-5.72-5.71s2.56-5.71,5.72-5.71h114.42c3.16,0,5.72,2.56,5.72,5.71s-2.56,5.71-5.72,5.71"/>
      <path class="cls-8" d="m40.13,301.98c0,3.16-2.56,5.71-5.72,5.71s-5.72-2.56-5.72-5.71,2.56-5.71,5.72-5.71,5.72,2.56,5.72,5.71"/>
      <path class="cls-11" d="m263.26,113.41l11.44,5.71-11.44,5.71v-11.43Z"/>
      <path class="cls-3" d="m297.59,210.56h-57.21v-45.72h57.21v45.72"/>
      <path class="cls-11" d="m263.26,181.98l11.44,5.71-11.44,5.71v-11.43Z"/>
      <path class="cls-3" d="m297.59,279.13h-57.21v-45.71h57.21v45.71"/>
      <path class="cls-11" d="m263.26,250.56l11.44,5.71-11.44,5.71v-11.43Z"/>
      <path class="cls-3" d="m251.82,301.98c0,3.16-2.56,5.71-5.72,5.71s-5.72-2.56-5.72-5.71,2.56-5.71,5.72-5.71,5.72,2.56,5.72,5.71"/>
      <path class="cls-3" d="m274.7,301.98c0,3.16-2.56,5.71-5.72,5.71s-5.72-2.56-5.72-5.71,2.56-5.71,5.72-5.71,5.72,2.56,5.72,5.71"/>
      <path class="cls-3" d="m297.59,301.98c0,3.16-2.56,5.71-5.72,5.71s-5.72-2.56-5.72-5.71,2.56-5.71,5.72-5.71,5.72,2.56,5.72,5.71"/>
      <g class="cls-1">
        <path class="cls-2" d="m648.21,26.94C615.96,9.57,573.18,0,527.78,0s-88.19,9.57-120.44,26.94c-33.25,17.91-51.56,42.07-51.56,68.04s20.86,53.07,57.25,70.98c.95.46,1.84,1.01,2.69,1.65s1.61,1.34,2.32,2.13c.71.78,1.33,1.63,1.88,2.53s1,1.85,1.36,2.84c.37.99.64,2,.81,3.04.17,1.04.24,2.09.21,3.14-.03,1.06-.16,2.1-.39,3.13-.23,1.03-.55,2.03-.97,2.99-4.52,10.42-10.96,19.48-19.33,27.16-.95.88-1.76,1.88-2.42,3-.65,1.13-1.13,2.32-1.42,3.58-.3,1.27-.4,2.55-.3,3.84.09,1.29.37,2.55.84,3.76.47,1.21,1.11,2.32,1.92,3.34.81,1.02,1.74,1.89,2.82,2.63,1.07.74,2.22,1.3,3.47,1.69,1.24.39,2.51.58,3.81.58.81,0,1.61-.07,2.41-.22,26.71-4.9,64.58-16.26,93.21-42.59,1.58-1.47,3.39-2.58,5.42-3.33,2.03-.76,4.13-1.09,6.29-1.01,3.37.1,6.78.17,10.15.17,45.41,0,88.18-9.57,120.44-26.94,33.24-17.95,51.55-42.12,51.55-68.08s-18.31-50.14-51.56-68.04Z"/>
      </g>
      <path class="cls-4" d="m641.46,154.08c-30.8,16.59-71.85,25.72-115.61,25.72-3.25,0-6.55-.05-9.81-.16-1.73-.06-3.45.05-5.16.32-1.71.28-3.38.71-5,1.32-1.62.6-3.17,1.35-4.65,2.26-1.48.9-2.85,1.94-4.13,3.12-26.84,24.7-62.75,35.43-88.15,40.09-.61.12-1.19.05-1.75-.22s-.97-.68-1.26-1.24c-.28-.55-.36-1.14-.24-1.74.12-.61.41-1.12.87-1.53,4.66-4.28,8.83-8.99,12.49-14.15,3.67-5.16,6.76-10.64,9.28-16.44.34-.78.64-1.57.9-2.38.27-.8.49-1.62.68-2.45.18-.83.33-1.67.43-2.51.1-.84.17-1.68.2-2.53.02-.85,0-1.7-.05-2.54-.05-.85-.15-1.69-.29-2.53-.14-.83-.31-1.67-.53-2.48-.21-.82-.47-1.63-.77-2.43-.29-.8-.62-1.58-.99-2.34-.37-.76-.77-1.51-1.21-2.23-.44-.73-.91-1.43-1.42-2.11-.51-.68-1.04-1.33-1.61-1.96-.57-.63-1.17-1.23-1.79-1.81s-1.28-1.11-1.96-1.63-1.38-.99-2.1-1.44c-.72-.44-1.47-.85-2.23-1.22-32.76-16.11-51.57-38.67-51.57-61.84s16.42-43.05,46.22-59.08c30.79-16.61,71.85-25.75,115.6-25.75s84.81,9.16,115.61,25.72c29.81,16.05,46.22,37.04,46.22,59.1s-16.42,43.05-46.22,59.1Z"/>
      <path class="cls-2" d="m403.09,70.11l-9.12-.56-2.33,37.45,28.64,1.78.44-7.06-19.53-1.21,1.9-30.39Z"/>
      <path class="cls-2" d="m425.43,109.1l30.33,1.89.43-6.96-21.32-1.32.54-8.67,18.18,1.13.42-6.8-18.18-1.13.51-8.08,20.59,1.28.43-6.96-29.6-1.84-2.33,37.45Z"/>
      <path class="cls-2" d="m460.45,80.77l12.53.78-1.89,30.39,9.06.56,1.9-30.39,12.53.78.44-7.06-34.13-2.13-.44,7.06Z"/>
      <path class="cls-2" d="m504.13,73.71c-1.47-.14-2.79.26-3.95,1.18-.55.45-.98.99-1.3,1.63-.31.64-.48,1.32-.49,2.03-.07.69,0,1.37.23,2.03.23.66.58,1.24,1.07,1.74.4.39.85.7,1.35.95l-2.96,8.33,5.59.35,3.67-7.51c.51-.97.9-1.76,1.16-2.34.23-.5.4-1.02.52-1.55.08-.43.14-.87.16-1.31.08-.71,0-1.4-.22-2.07-.22-.68-.57-1.28-1.06-1.8-1.03-1.07-2.28-1.63-3.77-1.66Z"/>
      <path class="cls-2" d="m540.23,97.24c-1.35-.88-2.79-1.6-4.3-2.17-1.57-.6-3.17-1.12-4.79-1.56-1.61-.44-3.09-.88-4.41-1.3-1.16-.33-2.21-.88-3.16-1.63-.38-.3-.66-.66-.85-1.1-.19-.44-.27-.9-.22-1.38.05-.8.34-1.5.89-2.09.69-.7,1.52-1.16,2.47-1.38,1.43-.33,2.88-.43,4.34-.29,1.82.13,3.59.47,5.32,1.05,1.87.62,3.64,1.46,5.3,2.53l3.26-6.35c-1.9-1.27-3.95-2.22-6.14-2.85-2.36-.72-4.78-1.16-7.25-1.31-3.69-.23-6.79.1-9.3,1.01-2.51.9-4.41,2.2-5.72,3.89-1.32,1.69-2.04,3.6-2.16,5.74-.09.81-.07,1.61.06,2.42.14.8.38,1.57.72,2.31s.79,1.41,1.33,2.02c.54.61,1.15,1.14,1.84,1.58,1.36.91,2.81,1.65,4.35,2.2,1.59.58,3.18,1.09,4.77,1.53s3.05.89,4.38,1.35c1.16.36,2.22.91,3.18,1.65.38.29.67.66.86,1.09.19.44.27.9.22,1.37-.04.79-.34,1.46-.92,2.01-.72.65-1.57,1.07-2.52,1.27-1.44.31-2.9.4-4.37.27-2.39-.15-4.69-.66-6.92-1.53-2.08-.77-4-1.83-5.76-3.18l-3.47,6.31c2.04,1.59,4.3,2.78,6.77,3.56,2.91,1,5.89,1.59,8.96,1.77,3.7.22,6.81-.11,9.33-1.03,2.53-.92,4.45-2.21,5.77-3.89,1.34-1.65,2.07-3.54,2.19-5.67.17-1.73-.15-3.37-.95-4.92-.76-1.36-1.79-2.46-3.1-3.31Z"/>
      <path class="cls-2" d="m574.74,94.69c.69-1.42,1.65-2.63,2.86-3.64,1.25-1.03,2.66-1.77,4.21-2.23,1.7-.5,3.44-.69,5.2-.56,1.94.08,3.77.55,5.51,1.4,1.74.86,3.23,2.03,4.47,3.52l6.08-4.78c-1.83-2.28-4.07-4.03-6.72-5.26-2.83-1.24-5.79-1.98-8.87-2.22-3.08-.24-6.12.05-9.1.84-2.6.74-4.95,1.95-7.08,3.61-1.03.81-1.96,1.73-2.8,2.74-.83,1.01-1.55,2.1-2.16,3.27-.6,1.17-1.07,2.39-1.41,3.66-.34,1.27-.54,2.56-.6,3.88-.2,2.64.15,5.21,1.05,7.7.91,2.49,2.28,4.69,4.13,6.59,1.86,1.94,4.04,3.43,6.51,4.48,2.71,1.15,5.53,1.8,8.47,1.95,2.85.17,5.68-.06,8.46-.68,2.74-.58,5.3-1.61,7.67-3.1l.95-15.19-8.28-.52-.69,10.99c-.6.27-1.22.49-1.86.67-1.73.47-3.49.65-5.28.53-1.76-.09-3.44-.49-5.05-1.22-1.47-.67-2.76-1.58-3.87-2.75-1.08-1.16-1.89-2.49-2.4-3.99-.52-1.59-.72-3.22-.62-4.89.1-1.67.51-3.26,1.22-4.77l-.02-.04Z"/>
      <path class="cls-2" d="m645.09,89.98c-1.89-1.91-4.07-3.4-6.54-4.46-2.7-1.15-5.52-1.79-8.45-1.95-2.93-.21-5.8.09-8.62.92-2.58.77-4.94,1.99-7.05,3.67-.51.41-1,.84-1.46,1.29-.47.46-.91.94-1.32,1.44-.42.51-.8,1.03-1.17,1.57-.36.54-.69,1.1-.99,1.68-.3.58-.57,1.17-.82,1.78-.24.61-.44,1.23-.62,1.85-.18.63-.32,1.27-.43,1.91-.11.64-.18,1.29-.22,1.94-.04.65-.05,1.31-.02,1.96.03.65.09,1.3.18,1.94s.22,1.29.39,1.92c.17.64.36,1.26.59,1.86.23.61.48,1.21.78,1.8s.61,1.15.96,1.7c.35.55.73,1.08,1.14,1.59s.84,1,1.29,1.46c1.9,1.92,4.09,3.42,6.57,4.49,2.7,1.13,5.51,1.79,8.43,1.98,2.92.18,5.79-.11,8.61-.89,2.58-.76,4.93-1.96,7.05-3.64,2.05-1.62,3.68-3.59,4.89-5.9,1.22-2.41,1.91-4.96,2.08-7.65.17-2.69-.2-5.31-1.11-7.84-.92-2.43-2.29-4.58-4.11-6.43Zm-3.94,13.74c-.08,1.68-.49,3.27-1.22,4.78-.7,1.41-1.65,2.62-2.84,3.64-1.19,1.03-2.54,1.8-4.05,2.29-1.59.51-3.22.71-4.9.59-1.68-.09-3.29-.48-4.81-1.19-1.43-.66-2.68-1.58-3.73-2.75-1.04-1.17-1.82-2.48-2.34-3.96-.52-1.59-.72-3.23-.62-4.9s.51-3.27,1.22-4.78c.7-1.4,1.64-2.61,2.81-3.64,1.19-1.04,2.54-1.81,4.05-2.29,1.6-.51,3.24-.7,4.92-.58,1.67.08,3.27.48,4.79,1.18,1.43.67,2.67,1.58,3.73,2.75,1.06,1.16,1.84,2.48,2.36,3.96.54,1.58.75,3.21.63,4.88v.02Z"/>
      <path class="cls-2" d="m660.03,114.44c-1.47-.15-2.8.23-3.97,1.13-.53.39-.94.88-1.24,1.45s-.47,1.19-.51,1.85c-.09,1.37.35,2.54,1.32,3.52,1.04,1.08,2.3,1.64,3.8,1.68,1.48.15,2.79-.25,3.93-1.21,1.06-.86,1.62-1.97,1.69-3.33.06-.65-.03-1.28-.25-1.89-.22-.61-.56-1.15-1.02-1.6-1.03-1.04-2.28-1.57-3.74-1.6Z"/>
      <path class="cls-2" d="m656.74,110.36l6.94.43,3.25-24.29-10.35-.64.16,24.5Z"/>
      <path class="cls-10" d="m495.02,29.09c10.55-18.47,135.02-5.59,164.66,37.46,29.64,43.05-7.56,73.73-18.49,72.85-10.93-.89-25.68-4.58-9.75-39.14,24.57-53.34-142.3-60.88-136.41-71.17Z"/>
      <path class="cls-9" d="m385.42,112.49s11.65,38.09,60.06,46.88c26.09,4.73-18.89,41.1-9.2,43.05,9.69,1.94,71.68-34.34,53.28-52.21-18.41-17.86-77.51-16.61-86.69-35.18-9.17-18.56-29.07-27.66-17.45-2.54Z"/>
      <g class="cls-14">
        <path class="cls-7" d="m379.87,268.11h312.54c.45,0,.89.05,1.33.14.44.08.86.21,1.28.39.42.17.81.38,1.18.63s.71.53,1.03.85.6.66.85,1.03c.24.38.45.77.63,1.18.17.41.3.84.39,1.28.08.44.13.89.13,1.33v54.36c0,.45-.05.89-.13,1.33-.09.44-.22.87-.39,1.28-.17.42-.38.81-.63,1.18-.25.38-.53.72-.85,1.04s-.66.6-1.03.85c-.37.24-.76.46-1.18.63-.41.17-.84.3-1.28.39s-.88.13-1.33.13h-312.54c-.45,0-.89-.04-1.33-.13s-.86-.21-1.28-.39-.81-.39-1.18-.63c-.37-.25-.71-.53-1.03-.85s-.6-.66-.84-1.04c-.25-.37-.46-.76-.63-1.18-.17-.41-.3-.84-.39-1.28-.09-.44-.14-.88-.14-1.33v-54.36c0-.45.05-.89.14-1.33.08-.44.21-.86.39-1.28.17-.42.38-.81.63-1.18.24-.37.53-.71.84-1.03s.66-.6,1.03-.85.77-.46,1.18-.63.84-.3,1.28-.39c.44-.09.88-.14,1.33-.14Z"/>
      </g>
      <path class="cls-6" d="m652.9,291.06l-1.94-.82c.84-2,2.03-3.77,3.56-5.3,1.53-1.54,3.29-2.72,5.28-3.57l.82,1.94c-1.74.73-3.28,1.78-4.61,3.11-1.34,1.34-2.38,2.89-3.11,4.63h0Zm26.76,0l1.94-.82c-.84-2-2.03-3.77-3.56-5.3-1.53-1.54-3.29-2.72-5.28-3.57l-.82,1.94c1.74.73,3.28,1.78,4.61,3.11,1.34,1.34,2.38,2.89,3.11,4.63h0Zm-.96,18.84v-13.17c0-.68-.05-1.35-.16-2.02s-.27-1.32-.49-1.96c-.21-.65-.48-1.27-.8-1.86-.32-.6-.68-1.17-1.09-1.71-.41-.54-.86-1.04-1.35-1.51-.49-.46-1.02-.89-1.58-1.27-.56-.38-1.15-.71-1.76-.99-.61-.28-1.25-.51-1.9-.69v-.4c0-.44-.08-.85-.25-1.26s-.41-.76-.71-1.07-.67-.55-1.07-.71c-.41-.17-.82-.25-1.26-.24-.44,0-.85.08-1.26.25s-.76.4-1.06.71c-.31.31-.55.66-.71,1.06-.17.41-.25.82-.25,1.26v.4c-.65.18-1.28.41-1.9.69s-1.2.61-1.76.99c-.56.38-1.09.8-1.58,1.27-.49.46-.94.96-1.35,1.51-.41.54-.77,1.1-1.09,1.7s-.58,1.22-.8,1.86c-.21.65-.38,1.3-.49,1.97-.11.67-.16,1.34-.16,2.02v13.18l-3.35,4.61v3.16h31.54v-3.16l-3.35-4.61Zm-12.42,13.31c.65,0,1.29-.09,1.91-.28.62-.18,1.21-.45,1.76-.8s1.03-.77,1.46-1.26c.43-.49.78-1.03,1.05-1.63h-12.35c.27.59.62,1.13,1.05,1.63.43.49.92.91,1.46,1.26s1.14.61,1.76.8c.63.18,1.26.28,1.91.28Zm-197.81-20.59c-.63-.51-1.31-.92-2.05-1.23-.77-.33-1.56-.59-2.37-.78l-2.04-.51c-.45-.11-.89-.24-1.32-.39-.42-.15-.82-.34-1.2-.58-.35-.21-.64-.49-.85-.84-.22-.36-.32-.76-.31-1.18,0-.54.16-1.02.47-1.45.36-.46.81-.8,1.35-1.01.68-.27,1.38-.39,2.11-.38,1.17,0,2.11.26,2.85.78.76.52,1.17,1.24,1.24,2.17h3.79c0-1.19-.34-2.28-1.03-3.26-.71-.99-1.63-1.73-2.74-2.22-1.16-.54-2.52-.8-4.06-.8-1.42-.03-2.78.24-4.08.8-1.15.49-2.1,1.24-2.84,2.25-.72,1.01-1.07,2.13-1.05,3.36,0,1.56.52,2.81,1.55,3.75,1.04.94,2.45,1.64,4.24,2.1l2.47.64c.7.17,1.38.4,2.04.68.53.21.98.52,1.36.94.35.4.52.88.5,1.41,0,.61-.18,1.16-.56,1.64-.41.5-.92.86-1.52,1.08-.72.28-1.48.4-2.26.39-.76.02-1.5-.11-2.22-.37-.64-.23-1.18-.6-1.61-1.13-.44-.56-.67-1.19-.7-1.9h-3.89c.06,1.45.43,2.67,1.13,3.68.74,1.05,1.71,1.81,2.91,2.29,1.24.52,2.71.79,4.4.79s3.22-.27,4.45-.82c1.23-.55,2.17-1.3,2.82-2.27.67-1.02,1-2.14.97-3.36.02-.86-.16-1.68-.53-2.46-.35-.7-.83-1.3-1.44-1.79Zm19.16,2.49c.02.86-.18,1.67-.59,2.43-.4.72-.96,1.27-1.69,1.66-.82.4-1.68.6-2.59.6s-1.77-.2-2.59-.6c-.72-.39-1.29-.94-1.69-1.66-.42-.76-.61-1.56-.6-2.43v-13.89h-3.93v14.22c0,1.56.36,2.93,1.09,4.11.76,1.22,1.79,2.15,3.08,2.77,1.32.66,2.87.99,4.65.99s3.32-.33,4.64-.99c1.29-.63,2.32-1.55,3.08-2.77.73-1.18,1.1-2.55,1.1-4.11v-14.22h-3.94v13.89Zm23.74-.88c.45.78.68,1.72.68,2.83.02,1.09-.26,2.1-.81,3.03-.55.9-1.36,1.61-2.46,2.13-1.09.52-2.47.78-4.14.78h-8.79v-21.77h8.32c1.57,0,2.88.25,3.92.74,1.04.49,1.82,1.17,2.34,2.02.54.89.79,1.85.78,2.89.03.8-.15,1.56-.51,2.27-.33.62-.79,1.13-1.36,1.53-.59.4-1.23.68-1.92.84v.21c.8.05,1.54.28,2.22.71.73.45,1.31,1.06,1.73,1.81h.01Zm-11.59-3.74h3.89c.64,0,1.25-.12,1.83-.38.53-.23.96-.59,1.29-1.07.33-.5.49-1.05.47-1.65.03-.83-.27-1.53-.89-2.08-.59-.55-1.46-.82-2.63-.82h-3.97v6.01Zm8.27,6.27c0-.63-.15-1.21-.48-1.75-.33-.54-.79-.95-1.35-1.23-.67-.32-1.36-.47-2.1-.45h-4.33v6.38h4.23c1.43,0,2.46-.28,3.1-.82.66-.56.97-1.27.94-2.14h0Zm21.34-4.14c-.62-.51-1.3-.92-2.05-1.23-.77-.33-1.56-.59-2.37-.78l-2.03-.51c-.45-.1-.9-.24-1.33-.39-.42-.15-.82-.34-1.2-.58-.35-.21-.64-.49-.85-.84-.22-.36-.32-.76-.31-1.18,0-.54.16-1.02.47-1.45.36-.46.81-.8,1.35-1.01.68-.27,1.38-.39,2.11-.37,1.17,0,2.11.26,2.85.78.76.52,1.17,1.24,1.24,2.17h3.79c0-1.19-.34-2.28-1.03-3.26-.71-.99-1.63-1.73-2.74-2.22-1.16-.54-2.52-.8-4.05-.8-1.42-.03-2.78.24-4.08.8-1.16.49-2.1,1.24-2.85,2.25-.72,1.01-1.07,2.13-1.04,3.37,0,1.56.52,2.81,1.55,3.74,1.03.94,2.45,1.64,4.24,2.1l2.47.64c.7.17,1.38.4,2.04.67.53.21.98.52,1.36.94.34.41.51.88.49,1.41,0,.61-.18,1.16-.56,1.64-.41.5-.92.86-1.52,1.08-.73.28-1.48.41-2.26.39-.76.01-1.5-.11-2.22-.38-.64-.23-1.18-.6-1.61-1.13-.43-.56-.67-1.19-.7-1.89h-3.87c.05,1.44.43,2.67,1.13,3.68.74,1.05,1.71,1.81,2.9,2.29,1.24.53,2.71.79,4.4.79s3.22-.27,4.45-.82c1.23-.54,2.17-1.3,2.82-2.26.68-1.02,1-2.14.98-3.36.02-.86-.16-1.69-.53-2.47-.35-.7-.84-1.3-1.45-1.8h0Zm11.79-7.27c.96-.61,2.01-.91,3.14-.89.64,0,1.26.08,1.86.27.57.17,1.08.44,1.55.8.46.36.84.79,1.14,1.29.32.54.53,1.12.63,1.73h3.97c-.14-1.14-.48-2.22-1.04-3.23-.51-.93-1.18-1.73-2.01-2.4-.83-.67-1.76-1.17-2.77-1.49-1.09-.35-2.22-.52-3.37-.51-1.82-.03-3.52.41-5.09,1.33-1.55.93-2.74,2.21-3.55,3.83-.87,1.67-1.3,3.68-1.3,6.02s.43,4.35,1.29,6.02c.81,1.63,1.99,2.91,3.54,3.84,1.5.89,3.2,1.33,5.11,1.33,1.21.02,2.39-.18,3.53-.58,1.03-.36,1.95-.91,2.77-1.62,1.63-1.41,2.59-3.18,2.89-5.31l-3.96-.02c-.11.61-.33,1.18-.66,1.7-.31.49-.69.91-1.16,1.25-.46.35-.98.6-1.54.77-.59.18-1.2.27-1.83.26-1.13.02-2.17-.27-3.13-.86-.91-.58-1.62-1.44-2.14-2.57s-.78-2.54-.78-4.2c0-1.64.26-3.02.78-4.16.45-1.08,1.16-1.95,2.13-2.6h0Zm27.79,9.02l4.7,8.63h-4.39l-4.27-7.97h-4v7.97h-3.94v-21.78h8.16c1.67,0,3.07.29,4.2.88,1.11.55,1.97,1.36,2.58,2.44.58,1.05.88,2.27.88,3.65s-.3,2.6-.89,3.63c-.63,1.07-1.49,1.85-2.61,2.37-.15.06-.28.13-.43.19h.01Zm-7.96-2.61h3.63c.98,0,1.78-.14,2.4-.41.6-.24,1.06-.65,1.39-1.2.32-.61.47-1.26.45-1.95.02-.7-.14-1.36-.46-1.98-.32-.58-.79-.99-1.39-1.26-.62-.29-1.42-.43-2.41-.43h-3.6v7.23Zm15.49,11.24h3.94v-21.79h-3.94v21.79Zm23.73-8.76c.45.78.68,1.72.68,2.83.02,1.09-.26,2.1-.81,3.03-.55.9-1.36,1.61-2.46,2.13-1.09.52-2.47.78-4.14.78h-8.79v-21.79h8.32c1.57,0,2.88.25,3.92.74,1.04.49,1.82,1.17,2.34,2.02.54.89.8,1.85.78,2.89.03.8-.15,1.56-.51,2.27-.33.62-.79,1.13-1.37,1.53-.59.4-1.23.68-1.92.84v.21c.8.05,1.54.28,2.22.71.73.45,1.32,1.06,1.74,1.81v.02Zm-11.59-3.76h3.9c.64.01,1.25-.11,1.83-.38.53-.23.96-.59,1.29-1.07.33-.5.49-1.05.47-1.65.02-.83-.27-1.53-.89-2.08-.59-.55-1.46-.82-2.63-.82h-3.98v6.01Zm8.27,6.27c.01-.63-.15-1.21-.47-1.75-.33-.54-.79-.95-1.36-1.23-.66-.32-1.36-.47-2.1-.45h-4.34v6.38h4.24c1.43,0,2.46-.27,3.1-.82.66-.56.96-1.27.93-2.14h0Zm11.36,2.94v-5.94h9.46v-3.31h-9.46v-5.91h10.19v-3.31h-14.13v21.77h14.21v-3.31h-10.28Zm-182.68-23.17v31.34c0,.49-.09.96-.28,1.42s-.46.85-.8,1.2c-.34.35-.74.61-1.2.8-.45.19-.92.28-1.41.28h-31.27c-.49,0-.96-.09-1.41-.28s-.85-.45-1.2-.8-.61-.74-.8-1.2-.28-.93-.28-1.42v-31.34c0-.49.09-.96.28-1.42s.45-.85.8-1.2.74-.61,1.2-.8.92-.28,1.41-.28h31.27c.49,0,.96.09,1.41.28.45.19.85.45,1.2.8.34.34.61.74.8,1.2s.28.93.28,1.42Zm-8.89,15.64l-16.02-9.27v18.53l16.02-9.27Z"/>
    </g>
  </g>
</svg>