<?xml version="1.0" encoding="UTF-8"?>
<svg id="Layer_2" data-name="Layer 2" xmlns="http://www.w3.org/2000/svg" xmlns:xlink="http://www.w3.org/1999/xlink" viewBox="0 0 565.62 480.21">
  <defs>
    <style>
      .cls-1 {
        fill: #ae8562;
      }

      .cls-1, .cls-2, .cls-3, .cls-4, .cls-5, .cls-6, .cls-7, .cls-8, .cls-9, .cls-10, .cls-11 {
        stroke-width: 0px;
      }

      .cls-2 {
        fill: #4471b7;
      }

      .cls-12 {
        clip-path: url(#clippath-2);
      }

      .cls-3 {
        fill: #1262a5;
      }

      .cls-4 {
        fill: none;
      }

      .cls-5 {
        fill: #da4551;
      }

      .cls-13 {
        clip-path: url(#clippath-1);
      }

      .cls-14 {
        clip-path: url(#clippath-4);
      }

      .cls-6 {
        fill: #88aad9;
      }

      .cls-7 {
        fill: #fff;
      }

      .cls-8 {
        fill: #6688c5;
      }

      .cls-9 {
        fill: #1b1918;
      }

      .cls-10 {
        fill: #3c61ad;
      }

      .cls-15 {
        clip-path: url(#clippath);
      }

      .cls-16 {
        clip-path: url(#clippath-3);
      }

      .cls-11 {
        fill: #1e1e1e;
      }
    </style>
    <clipPath id="clippath">
      <rect class="cls-4" width="151" height="320"/>
    </clipPath>
    <clipPath id="clippath-1">
      <rect class="cls-4" x="191.62" width="374" height="320"/>
    </clipPath>
    <clipPath id="clippath-2">
      <rect class="cls-4" x="260.99" y="373.33" width="235" height="68"/>
    </clipPath>
    <clipPath id="clippath-3">
      <rect class="cls-4" x="265.54" y="367.21" width="226.67" height="63.46"/>
    </clipPath>
    <clipPath id="clippath-4">
      <rect class="cls-4" x="422.87" y="420" width="46.67" height="60.21"/>
    </clipPath>
  </defs>
  <g id="Layer_1-2" data-name="Layer 1">
    <g class="cls-15">
      <path class="cls-1" d="m116.31,53.08h34.88V.49h-44.54v.2C48.09,2.84,36.02,35.64,35.02,70.32h-.14v36.48H0v52.66h34.88v160.04h62.58v-160.04h44.88l8.85-52.66h-53.73v-32.66c0-11.6,7.78-21.06,18.85-21.06Z"/>
    </g>
    <g class="cls-13">
      <path class="cls-8" d="m545.78,319.99H211.45c-10.94,0-19.8-8.86-19.8-19.79V19.77C191.66,8.85,200.52-.01,211.45-.01h334.33c10.93,0,19.8,8.86,19.8,19.78v280.44c0,10.93-8.86,19.79-19.8,19.79Z"/>
    </g>
    <path class="cls-7" d="m491.82,193.21h-225.42c-7.38,0-13.41-6.03-13.41-13.4s6.04-13.4,13.41-13.4h225.42c7.38,0,13.41,6.03,13.41,13.4s-6.04,13.4-13.41,13.4Z"/>
    <path class="cls-7" d="m491.82,236.38h-225.42c-7.38,0-13.41-6.03-13.41-13.41s6.04-13.4,13.41-13.4h225.42c7.38,0,13.41,6.03,13.41,13.4s-6.04,13.41-13.41,13.41Z"/>
    <path class="cls-6" d="m272.06,224.16c.09,6.12-9.53,6.12-9.44,0-.09-6.12,9.53-6.12,9.44,0Z"/>
    <path class="cls-6" d="m288.24,224.16c.09,6.12-9.53,6.12-9.44,0-.09-6.12,9.54-6.12,9.44,0Z"/>
    <path class="cls-6" d="m304.44,224.16c.09,6.12-9.54,6.12-9.45,0-.09-6.12,9.54-6.12,9.45,0Z"/>
    <path class="cls-6" d="m320.62,224.16c.09,6.12-9.54,6.12-9.44,0-.09-6.12,9.53-6.12,9.44,0Z"/>
    <path class="cls-6" d="m336.81,224.16c.09,6.12-9.53,6.12-9.44,0-.09-6.12,9.54-6.12,9.44,0Z"/>
    <path class="cls-6" d="m353.01,224.16c.09,6.12-9.54,6.12-9.45,0-.09-6.12,9.54-6.12,9.45,0Z"/>
    <path class="cls-6" d="m369.19,224.16c.09,6.12-9.54,6.12-9.44,0-.09-6.12,9.53-6.12,9.44,0Z"/>
    <path class="cls-6" d="m385.38,224.16c.09,6.12-9.53,6.12-9.44,0-.09-6.12,9.53-6.12,9.44,0Z"/>
    <path class="cls-7" d="m431.01,77.13c-1.16,68.06-102.48,68.05-103.64,0,1.17-68.06,102.48-68.05,103.64,0Z"/>
    <path class="cls-10" d="m379.27,75.04c21.32-.47,21.3-32.21,0-32.67-21.5.42-21.49,32.27,0,32.67Z"/>
    <path class="cls-10" d="m407.98,104.15c0,10.31-57.6,10.31-57.6,0l.02-12.01c2.28-16.42,52.9-17.11,57.59,0v12.01Z"/>
    <path class="cls-8" d="m493.61,220.5c.67-7.83-11.22-7.82-10.55,0h-.8v9.51c0,1.64,12.19,1.64,12.19,0v-9.51h-.83Zm-8.67-.72c-.09-5.04,7.74-4.32,6.83.72h-6.83v-.72Zm4.29,5.51c-.18.79.6,3.69-.92,3.59-1.43.09-.66-2.84-.84-3.59-1.49-.74-.81-3.15.84-3.1,1.65-.05,2.29,2.31.92,3.1Z"/>
    <path class="cls-8" d="m488.35,178.83c4.44.04,4.44-6.94,0-6.89-4.48-.05-4.48,6.95,0,6.89Z"/>
    <path class="cls-8" d="m494.41,184.97c0,2.18-12.22,2.18-12.22,0l.07-2.53c1.14-4.08,14.17-3.81,12.15,2.53Z"/>
    <path class="cls-6" d="m314.84,183.74h-49.4c-2.17,0-3.94-1.77-3.94-3.93s1.77-3.93,3.94-3.93h49.4c2.17,0,3.94,1.77,3.94,3.93s-1.77,3.93-3.94,3.93Z"/>
    <path class="cls-6" d="m362.49,183.87h-35.92c-5.22.07-5.24-8.14,0-8.06h35.92c5.22-.08,5.24,8.14,0,8.06Z"/>
    <path class="cls-5" d="m410.77,293.71h-60.4c-6.76,0-12.24-5.48-12.24-12.23s5.48-12.23,12.24-12.23h60.4c6.76,0,12.24,5.48,12.24,12.23s-5.48,12.23-12.24,12.23Z"/>
    <path class="cls-7" d="m360.77,274.63v9.85h3.94v2.79h-7.23v-12.64h3.29Z"/>
    <path class="cls-7" d="m365.79,282.89c-.01-6.03,10.45-5.99,10.33.08.08,6.13-10.53,6.09-10.33-.08Zm3.2.03c-.06,2.58,3.97,2.59,3.93.02.03-2.53-3.94-2.55-3.93-.02Z"/>
    <path class="cls-7" d="m387.49,278.67c-.12,1.75.3,8.77-.32,10.31-1.57,3.75-8.69,3.47-9.56-.67h3.42c1.27,2.09,4.02.21,3.42-1.99-2.52,2.63-7.21.37-6.93-3.22-.26-3.51,4.34-6.35,6.93-3.52v-.9h3.04Zm-6.81,4.26c-.07,2.57,3.95,2.57,3.92.02.03-2.53-3.93-2.53-3.92-.02Z"/>
    <path class="cls-7" d="m389.35,275.36c-.03-2.22,3.45-2.22,3.42,0,.03,2.21-3.45,2.21-3.42,0Zm3.23,3.3v8.6h-3.04v-8.6h3.04Z"/>
    <path class="cls-7" d="m394.67,278.67h3.04v1.09c1.46-2.03,5.22-1.62,5.91.82.27.77.08,5.79.14,6.69h-3.04c-.35-1.45,1.05-6.36-1.41-6.37-2.66-.16-1.26,4.93-1.59,6.37h-3.04v-8.6Z"/>
    <path class="cls-3" d="m462.2,438.85h-167.42c-17.43,0-31.56-14.16-31.56-31.62s14.13-31.62,31.56-31.62h167.42c17.43,0,31.56,14.15,31.56,31.62s-14.13,31.62-31.56,31.62Z"/>
    <g class="cls-12">
      <path class="cls-11" d="m462.2,441.03h-167.42c-18.59,0-33.73-15.17-33.73-33.79s15.14-33.79,33.73-33.79h167.42c18.6,0,33.72,15.16,33.72,33.79s-15.13,33.79-33.72,33.79Zm-167.42-63.24c-16.21,0-29.4,13.21-29.4,29.45s13.19,29.45,29.4,29.45h167.42c16.21,0,29.4-13.21,29.4-29.45s-13.19-29.45-29.4-29.45h-167.42Z"/>
    </g>
    <g class="cls-16">
      <path class="cls-2" d="m460.08,429.6h-163.19c-17.19,0-31.14-13.97-31.14-31.2s13.94-31.19,31.14-31.19h163.19c17.2,0,31.14,13.97,31.14,31.2,0,17.22-13.94,31.19-31.14,31.19Z"/>
    </g>
    <path class="cls-7" d="m298.57,409.36c-.66,0-1.25-.2-1.76-.6-.51-.4-.76-.91-.76-1.53v-16.29c0-.57.22-1.07.66-1.52s1.01-.66,1.69-.66h8.95c.69,0,1.26.21,1.71.63.45.42.68.94.68,1.53s-.23,1.1-.68,1.52c-.46.42-1.03.63-1.71.63h-6.26v3.71h5.22c.7,0,1.27.21,1.72.63s.68.94.68,1.53-.22,1.1-.68,1.52c-.46.42-1.03.63-1.72.63h-5.22v6.09c0,.62-.25,1.13-.76,1.53-.51.44-1.09.64-1.78.64Z"/>
    <path class="cls-7" d="m321.16,409.39c-1.57,0-2.96-.29-4.17-.85-1.2-.56-2.2-1.32-2.99-2.29-.8-.96-1.39-2.07-1.79-3.31-.39-1.23-.58-2.56-.58-3.96s.19-2.72.58-3.96c.4-1.24.99-2.34,1.79-3.31.79-.97,1.79-1.72,2.99-2.29,1.2-.56,2.59-.84,4.17-.84s2.96.28,4.17.84c1.2.57,2.2,1.32,2.99,2.29.79.96,1.39,2.07,1.79,3.31.39,1.23.58,2.56.58,3.96s-.19,2.71-.58,3.96-.99,2.34-1.79,3.31c-.79.97-1.79,1.72-2.99,2.29-1.2.56-2.59.85-4.17.85Zm0-4.33c1.55,0,2.71-.6,3.5-1.79.69-1.05,1.04-2.47,1.04-4.29s-.34-3.24-1.04-4.29c-.79-1.19-1.95-1.79-3.5-1.79s-2.73.6-3.52,1.79c-.7,1.04-1.04,2.47-1.04,4.29s.34,3.24,1.04,4.29c.79,1.19,1.96,1.79,3.52,1.79Z"/>
    <path class="cls-7" d="m347.04,409.18h-8.95c-.68,0-1.24-.22-1.69-.66-.44-.44-.66-.94-.66-1.5v-16.31c0-.62.25-1.14.76-1.53.51-.4,1.09-.6,1.77-.6s1.26.2,1.76.6c.51.4.76.91.76,1.53v14.13h6.26c.68,0,1.26.21,1.71.63.46.42.68.94.68,1.53s-.23,1.1-.68,1.52c-.45.43-1.01.66-1.7.66Z"/>
    <path class="cls-7" d="m364.09,409.18h-8.96c-.68,0-1.24-.22-1.69-.66-.44-.44-.66-.94-.66-1.5v-16.31c0-.62.25-1.14.76-1.53.51-.4,1.09-.6,1.77-.6s1.24.2,1.76.6c.51.4.76.91.76,1.53v14.13h6.26c.68,0,1.26.21,1.71.63.46.42.68.94.68,1.53s-.23,1.1-.68,1.52c-.45.43-1.01.66-1.7.66Z"/>
    <path class="cls-7" d="m376.64,409.39c-1.57,0-2.96-.29-4.17-.85-1.2-.56-2.2-1.32-2.99-2.29-.79-.96-1.38-2.07-1.78-3.31-.4-1.23-.58-2.56-.58-3.96s.19-2.72.58-3.96c.4-1.24.98-2.34,1.78-3.31.79-.97,1.79-1.72,2.99-2.29,1.2-.56,2.59-.84,4.17-.84s2.96.28,4.17.84c1.2.57,2.2,1.32,2.99,2.29.79.96,1.39,2.07,1.78,3.31.4,1.23.59,2.56.59,3.96s-.2,2.71-.59,3.96c-.4,1.23-.98,2.34-1.78,3.31-.79.97-1.79,1.72-2.99,2.29-1.21.56-2.59.85-4.17.85Zm0-4.33c1.55,0,2.71-.6,3.5-1.79.7-1.05,1.04-2.47,1.04-4.29s-.34-3.24-1.04-4.29c-.79-1.19-1.95-1.79-3.5-1.79s-2.73.6-3.51,1.79c-.7,1.04-1.04,2.47-1.04,4.29s.34,3.24,1.04,4.29c.78,1.19,1.96,1.79,3.51,1.79Z"/>
    <path class="cls-7" d="m407.21,409.35c-.53,0-1.01-.15-1.41-.43-.41-.28-.69-.66-.84-1.1l-3.12-9.38-3.36,9.39c-.34.98-1.07,1.47-2.18,1.47s-1.88-.5-2.21-1.5l-5.49-16.42c-.08-.2-.11-.41-.11-.61,0-.62.25-1.15.74-1.56.49-.42,1.09-.63,1.77-.63,1.24,0,2.04.53,2.41,1.61l3.14,9.32,3.37-9.42c.35-.98,1.08-1.46,2.18-1.46s1.88.49,2.21,1.48l3.08,9.16,3.05-9.18c.15-.45.43-.82.82-1.11.41-.29.89-.44,1.43-.44.68,0,1.24.22,1.69.67.44.44.66.94.66,1.5,0,.22-.03.42-.09.61l-5.47,16.47c-.16.45-.44.81-.84,1.1-.4.29-.87.44-1.41.44Z"/>
    <path class="cls-7" d="m432.96,409.39c-1.57,0-2.95-.33-4.14-.98-1.19-.66-2.1-1.55-2.74-2.68-.64-1.14-.95-2.45-.95-3.94v-11.06c0-.63.24-1.14.75-1.53.51-.4,1.09-.59,1.76-.59s1.27.2,1.77.59c.51.4.76.91.76,1.53v11.06c0,1.03.24,1.83.71,2.4s1.17.85,2.07.85c1.97,0,2.96-1.09,2.96-3.25v-11.04c0-.58.23-1.09.71-1.52.47-.43,1.04-.65,1.72-.65s1.27.22,1.73.65c.47.42.71.93.71,1.52v11.04c0,1.48-.32,2.8-.96,3.94-.64,1.14-1.55,2.03-2.73,2.67-1.17.65-2.55.98-4.13.98Z"/>
    <path class="cls-7" d="m453.21,409.39c-2.86,0-5.27-.79-7.2-2.35-.6-.48-.91-1.04-.91-1.67,0-.56.22-1.06.66-1.51.44-.44,1.01-.66,1.7-.66.57,0,1.08.17,1.53.53,1.12.89,2.53,1.32,4.22,1.32.66,0,1.31-.16,1.93-.46.6-.29.91-.73.91-1.34,0-.34-.15-.64-.43-.89-.29-.24-.7-.48-1.24-.71-.54-.23-1.15-.46-1.84-.7-.75-.26-1.52-.55-2.3-.87-.79-.33-1.52-.72-2.2-1.19-.69-.47-1.24-1.05-1.66-1.73s-.63-1.5-.63-2.45c0-1.98.79-3.54,2.35-4.68,1.34-.98,3.05-1.46,5.11-1.46,1.07,0,2.18.16,3.31.46,1.14.31,2.13.77,2.96,1.39.67.49,1,1.07,1,1.74,0,.56-.22,1.06-.66,1.5s-1.01.66-1.69.66c-.53,0-1.01-.15-1.45-.45-.47-.32-1.03-.56-1.67-.73-.65-.16-1.24-.24-1.81-.24-.69,0-1.31.11-1.83.34-.5.23-.75.65-.75,1.23,0,.28.13.53.38.73.25.21.63.42,1.14.63.51.21,1.08.43,1.73.65.77.26,1.56.56,2.36.9.81.34,1.57.76,2.29,1.25.71.49,1.29,1.1,1.73,1.81.44.71.66,1.57.66,2.57s-.21,1.91-.65,2.7c-.43.79-1.02,1.45-1.76,2s-1.57.95-2.49,1.23c-.92.29-1.85.44-2.81.44Z"/>
    <g class="cls-14">
      <path class="cls-9" d="m469.2,461.69v.41c0,9.97-7.97,18.09-17.79,18.09-5.53,0-10.03-2.16-13.36-6.43l-.04-.05c-.09-.11-.13-.14-.17-.2h-.01s-11.58-16.08-11.58-16.08l-.04-.07s-.02-.04-.03-.04c-.91-1.16-2.2-3.2-2.08-4.68.25-2.89,2.33-4.6,5.22-4.75,1.88-.09,4.25,1.01,5.42,2.46.05.04.09.08.12.13l1.1,1.4v-26.09c.11-3.15,2.09-5.61,5.26-5.61s5.72,2.45,5.84,5.58v.09s0,10.13,0,10.13c.45-.11.93-.17,1.4-.17,2.05,0,3.95,1.07,5.04,2.76.73-.31,1.52-.47,2.33-.47,2.03,0,3.88,1.01,4.97,2.65.74-.32,1.55-.48,2.37-.48,3.06,0,5.62,2.29,5.96,5.32.03.21.04.45.04.69v15.42Z"/>
    </g>
    <path class="cls-7" d="m468.24,444.34c0-.19-.01-.38-.03-.56-.28-2.44-2.34-4.34-4.85-4.34-1.05,0-2.01.32-2.8.89,0,0-.01,0-.02,0-.73-1.79-2.48-3.04-4.52-3.04-1.04,0-1.99.32-2.79.87,0,0-.01,0-.02,0-.7-1.84-2.48-3.16-4.57-3.16-.91,0-1.77.25-2.49.69-.01,0-.02,0-.02-.02v-11.77c-.09-2.53-2.18-4.53-4.73-4.53s-4.64,2-4.73,4.53v29.24s-.01.02-.02,0l-3.06-3.9s-.03-.04-.05-.04c-.91-1.19-2.36-1.93-3.98-1.84-2.33.12-4.25,1.97-4.45,4.3-.11,1.27.29,2.45,1.02,3.36.03.04.04.06.08.13l12.1,15.42c.04.05.06.08.14.17.02.02.05.06.07.08,3.05,3.93,7.78,6.3,13.08,6.3,9.21,0,16.67-7.6,16.67-16.97v-.46l-.02-15.36Z"/>
    <path class="cls-9" d="m469.2,459.67v-15.33c0-.23-.01-.47-.04-.68-.34-3.04-2.91-5.33-5.96-5.33-.82,0-1.63.16-2.37.48-1.1-1.64-2.94-2.65-4.97-2.65-.81,0-1.6.16-2.33.47-1.09-1.68-2.99-2.75-5.04-2.75-.48,0-.95.05-1.4.16v-10.21c-.13-3.13-2.69-5.58-5.85-5.58s-5.15,2.46-5.26,5.61v26.1l-1.1-1.41s-.08-.09-.12-.13c-1.17-1.46-3.55-2.56-5.42-2.46-2.9.15-4.97,1.86-5.22,4.75-.13,1.48,1.18,3.52,2.08,4.68,0,.01.02.03.03.04l.04.07,11.58,16.07h.01c.04.06.07.1.17.21l.04.05c3.33,4.27,7.83,6.43,13.36,6.43,9.81,0,17.79-8.11,17.79-18.09v-.41s0-.07,0-.09Zm-2.22.03v.02s0,.04,0,.04v.4c0,8.74-6.98,15.86-15.56,15.86-4.85,0-8.72-1.85-11.61-5.58l-.13-.15c-.05-.05-.06-.07-.08-.09l-11.49-15.97s-.03-.04-.04-.05l-.09-.13c-.58-.72-1.72-2.21-1.64-3.15.16-1.78,1.32-2.61,3.11-2.7,1.19-.06,2.91.76,3.63,1.7l.17.22.03.02,2.92,3.72c.3.38.8.52,1.26.36l.75-.28v-30.02c.08-1.93,1.08-3.44,3.04-3.44s3.54,1.52,3.61,3.45v19.21c0,.56.45,1.02,1.01,1.02s1.02-.45,1.02-1.02v-6.67c.49-.23,1.05-.36,1.6-.36,1.55,0,2.97.98,3.53,2.43.03.08.07.16.11.22v6.29c0,.56.45,1.02,1.01,1.02s1.02-.45,1.02-1.02v-6.23c.53-.28,1.11-.41,1.71-.41,1.54,0,2.91.92,3.48,2.33.03.06.05.11.08.17v5.83c0,.56.45,1.02,1.02,1.02s1.02-.45,1.02-1.02v-5.73c.53-.29,1.14-.44,1.75-.44,1.92,0,3.53,1.44,3.75,3.35.02.13.03.28.03.42v15.37h-.02Z"/>
  </g>
</svg>