<?xml version="1.0" encoding="UTF-8"?>
<svg id="Layer_2" data-name="Layer 2" xmlns="http://www.w3.org/2000/svg" xmlns:xlink="http://www.w3.org/1999/xlink" viewBox="0 0 709.09 462.61">
  <defs>
    <style>
      .cls-1 {
        fill: #ae8562;
      }

      .cls-1, .cls-2, .cls-3, .cls-4, .cls-5, .cls-6 {
        stroke-width: 0px;
      }

      .cls-2 {
        fill: #6c3916;
      }

      .cls-7 {
        clip-path: url(#clippath-2);
      }

      .cls-3 {
        fill: #010101;
      }

      .cls-4 {
        fill: none;
      }

      .cls-8 {
        clip-path: url(#clippath-1);
      }

      .cls-9 {
        clip-path: url(#clippath-4);
      }

      .cls-5 {
        fill: #fff;
      }

      .cls-6 {
        fill: #6d3816;
      }

      .cls-10 {
        clip-path: url(#clippath);
      }

      .cls-11 {
        clip-path: url(#clippath-3);
      }
    </style>
    <clipPath id="clippath">
      <rect class="cls-4" x="307.56" y="148.99" width="321" height="85.03"/>
    </clipPath>
    <clipPath id="clippath-1">
      <rect class="cls-4" x="307.56" y="246.03" width="321" height="84.97"/>
    </clipPath>
    <clipPath id="clippath-2">
      <rect class="cls-4" x="52.99" y="133.96" width="255" height="197"/>
    </clipPath>
    <clipPath id="clippath-3">
      <rect class="cls-4" x="504.09" y="372.61" width="205" height="64.08"/>
    </clipPath>
    <clipPath id="clippath-4">
      <rect class="cls-4" x="593.42" y="424.69" width="32" height="37.92"/>
    </clipPath>
  </defs>
  <g id="Layer_1-2" data-name="Layer 1">
    <g>
      <path class="cls-3" d="m378.78,281.53v-5.35c0-.89-.09-1.76-.26-2.63s-.43-1.71-.77-2.53c-.34-.82-.76-1.6-1.24-2.33-.49-.74-1.05-1.42-1.68-2.05-.63-.63-1.31-1.18-2.04-1.68-.73-.49-1.51-.91-2.33-1.24s-1.66-.59-2.53-.77c-.86-.17-1.74-.26-2.63-.26s-1.76.08-2.63.26c-.87.18-1.71.43-2.53.77s-1.59.76-2.33,1.24c-.73.49-1.42,1.05-2.04,1.68-.63.63-1.18,1.31-1.67,2.05-.49.73-.91,1.52-1.24,2.33s-.59,1.66-.77,2.53c-.17.87-.26,1.74-.26,2.63v5.35c-.83.35-1.59.81-2.28,1.38-.69.57-1.29,1.23-1.79,1.97-.49.74-.88,1.55-1.14,2.41-.26.86-.39,1.74-.39,2.64v11.67c0,.59.06,1.19.18,1.78.12.58.29,1.15.52,1.7.22.55.51,1.08.84,1.57s.71.96,1.13,1.38.88.8,1.38,1.13,1.02.61,1.57.84c.55.23,1.12.41,1.7.52.58.12,1.18.18,1.77.18h19.94c.6,0,1.19-.06,1.77-.18.59-.11,1.16-.29,1.7-.52.55-.22,1.08-.51,1.57-.84s.95-.71,1.38-1.13.8-.89,1.13-1.38c.33-.49.61-1.02.84-1.57.22-.55.4-1.12.52-1.7.12-.59.18-1.18.18-1.78v-11.67c0-.9-.13-1.78-.39-2.64-.26-.85-.64-1.66-1.14-2.41-.5-.74-1.09-1.41-1.78-1.97-.69-.57-1.45-1.03-2.28-1.38Zm-20.89-5.35c0-.48.05-.97.15-1.45.09-.48.23-.94.42-1.39s.41-.88.68-1.28c.27-.41.58-.78.92-1.13s.72-.65,1.13-.92.83-.5,1.28-.69.91-.33,1.39-.42.96-.14,1.45-.14.97.05,1.44.14c.48.09.94.23,1.39.42s.88.42,1.28.69.78.58,1.13.92.65.72.92,1.13c.27.4.5.83.69,1.28.18.45.32.91.42,1.39.09.48.14.96.14,1.45v4.65h-14.83v-4.65Zm20.42,25.41c0,.4-.08.79-.23,1.16-.15.37-.37.7-.66.98-.28.29-.61.51-.98.66-.38.15-.76.23-1.16.23h-19.94c-.4,0-.79-.08-1.16-.23-.37-.16-.7-.38-.98-.66s-.5-.61-.66-.98c-.16-.38-.23-.76-.23-1.16v-11.67c0-.4.07-.79.23-1.16.16-.37.38-.7.66-.98.29-.28.61-.5.98-.66.37-.15.76-.23,1.16-.23h19.94c.4,0,.79.08,1.16.23.37.16.7.38.98.66s.51.61.66.98c.16.38.23.76.23,1.16v11.67Z"/>
      <g class="cls-10">
        <path class="cls-3" d="m350.22,233.93h236.29c1.39,0,2.78-.07,4.16-.2,1.39-.14,2.76-.34,4.12-.61,1.36-.27,2.71-.61,4.04-1.02,1.33-.4,2.64-.87,3.92-1.4,1.29-.53,2.54-1.13,3.77-1.78s2.42-1.37,3.57-2.15c1.16-.77,2.27-1.6,3.34-2.48,1.07-.89,2.1-1.82,3.08-2.8.98-.98,1.92-2.01,2.8-3.09.88-1.07,1.71-2.19,2.48-3.34.77-1.16,1.48-2.35,2.14-3.58.65-1.22,1.24-2.48,1.78-3.77.53-1.29,1-2.59,1.41-3.92.4-1.33.74-2.68,1.01-4.05.27-1.36.47-2.73.61-4.12.14-1.39.2-2.77.2-4.16s-.07-2.78-.2-4.16c-.14-1.39-.34-2.76-.61-4.13s-.61-2.71-1.01-4.04c-.41-1.33-.88-2.64-1.41-3.92-.53-1.29-1.13-2.54-1.78-3.77-.66-1.22-1.37-2.42-2.14-3.57-.77-1.16-1.6-2.27-2.48-3.35-.88-1.07-1.81-2.1-2.8-3.09s-2.01-1.92-3.08-2.8-2.19-1.71-3.34-2.48c-1.15-.77-2.34-1.48-3.57-2.14s-2.48-1.25-3.77-1.78c-1.28-.53-2.59-1-3.92-1.41-1.33-.4-2.68-.74-4.04-1.01-1.36-.27-2.73-.47-4.12-.61-1.38-.14-2.77-.2-4.16-.2h-236.29c-1.39,0-2.78.07-4.16.2-1.38.14-2.76.34-4.11.61-1.36.27-2.71.61-4.04,1.01-1.33.41-2.64.88-3.92,1.41s-2.54,1.13-3.76,1.78c-1.23.66-2.42,1.37-3.57,2.14-1.16.78-2.27,1.6-3.34,2.48s-2.1,1.82-3.08,2.8c-.98.98-1.91,2.02-2.79,3.09-.89,1.08-1.71,2.19-2.48,3.35-.78,1.16-1.49,2.35-2.14,3.57-.66,1.23-1.25,2.48-1.78,3.77-.53,1.28-1,2.59-1.4,3.92-.41,1.33-.74,2.68-1.01,4.04-.27,1.36-.47,2.74-.61,4.13-.14,1.38-.2,2.77-.2,4.16s.07,2.78.2,4.16c.14,1.39.34,2.76.61,4.12.27,1.36.6,2.71,1.01,4.05.4,1.33.87,2.64,1.4,3.92.53,1.29,1.13,2.54,1.78,3.77.65,1.23,1.36,2.42,2.14,3.58.77,1.16,1.59,2.27,2.48,3.34.88,1.08,1.81,2.1,2.79,3.09.98.98,2.01,1.92,3.08,2.8,1.07.88,2.19,1.71,3.34,2.48,1.16.78,2.34,1.49,3.57,2.15,1.22.66,2.48,1.25,3.76,1.78s2.59,1,3.92,1.4c1.33.41,2.68.74,4.04,1.02,1.36.27,2.73.47,4.11.61s2.77.2,4.16.2Zm272.64-42.46c0,1.19-.06,2.38-.18,3.57-.12,1.18-.3,2.36-.53,3.53-.23,1.17-.53,2.32-.87,3.46-.35,1.14-.75,2.26-1.2,3.36-.46,1.1-.97,2.18-1.53,3.23-.56,1.05-1.18,2.07-1.84,3.06s-1.37,1.95-2.13,2.86c-.76.92-1.55,1.81-2.4,2.65-.84.84-1.72,1.65-2.64,2.4s-1.88,1.46-2.86,2.13c-.99.67-2.01,1.28-3.06,1.84-1.05.56-2.13,1.07-3.22,1.53-1.1.45-2.22.85-3.35,1.2-1.14.35-2.29.64-3.46.87-1.17.23-2.34.41-3.53.53-1.18.12-2.37.18-3.56.18h-173.52v-72.8h173.52c1.19,0,2.38.06,3.56.18,1.19.12,2.36.3,3.53.53,1.17.23,2.32.52,3.46.87,1.14.34,2.26.74,3.35,1.2s2.17.97,3.22,1.53c1.05.56,2.07,1.18,3.06,1.84s1.94,1.38,2.86,2.13,1.8,1.55,2.64,2.4c.84.84,1.64,1.72,2.4,2.65s1.46,1.88,2.13,2.87,1.28,2.01,1.84,3.06c.56,1.05,1.07,2.13,1.53,3.22.45,1.1.85,2.22,1.2,3.36.34,1.14.64,2.29.87,3.46.23,1.17.41,2.34.53,3.53.11,1.19.18,2.38.18,3.57Zm-272.64-36.4h56.71v72.8h-56.71c-1.19,0-2.38-.06-3.56-.18-1.19-.11-2.36-.29-3.53-.53-1.17-.23-2.32-.52-3.46-.86-1.14-.35-2.26-.75-3.36-1.2-1.1-.46-2.17-.97-3.22-1.53s-2.07-1.17-3.06-1.83c-.99-.66-1.94-1.38-2.86-2.13-.92-.76-1.8-1.56-2.64-2.4s-1.64-1.73-2.4-2.65c-.76-.92-1.46-1.88-2.13-2.86-.66-.99-1.28-2.02-1.83-3.07-.56-1.05-1.07-2.13-1.53-3.23-.46-1.1-.86-2.22-1.2-3.36s-.64-2.3-.86-3.47c-.23-1.17-.41-2.34-.53-3.53-.11-1.19-.17-2.38-.17-3.57s.06-2.38.17-3.57c.12-1.19.29-2.36.53-3.54.23-1.17.52-2.32.86-3.46s.74-2.26,1.2-3.36c.45-1.1.96-2.18,1.53-3.23.56-1.05,1.17-2.07,1.83-3.06s1.37-1.95,2.13-2.87,1.55-1.8,2.4-2.65c.84-.84,1.72-1.64,2.64-2.4.92-.76,1.88-1.46,2.86-2.13.99-.66,2.01-1.28,3.06-1.84s2.13-1.07,3.22-1.53,2.22-.86,3.36-1.2c1.14-.35,2.29-.64,3.46-.87,1.17-.23,2.34-.41,3.53-.52,1.18-.12,2.38-.18,3.56-.18Z"/>
      </g>
      <path class="cls-3" d="m364.71,189.54c.93,0,1.85-.09,2.76-.27s1.8-.45,2.65-.81c.86-.35,1.68-.79,2.45-1.31s1.48-1.1,2.15-1.76c.66-.66,1.24-1.37,1.76-2.15.52-.77.95-1.59,1.31-2.45.36-.86.63-1.74.81-2.66s.27-1.83.27-2.77-.09-1.85-.27-2.76c-.18-.91-.45-1.8-.8-2.66s-.79-1.68-1.31-2.45c-.52-.78-1.1-1.49-1.76-2.15-.66-.66-1.37-1.24-2.14-1.77-.77-.52-1.59-.95-2.45-1.31-.85-.35-1.74-.63-2.65-.81s-1.83-.27-2.76-.27-1.85.09-2.76.27c-.91.18-1.8.45-2.66.8-.86.36-1.67.79-2.44,1.31-.78.52-1.49,1.1-2.15,1.76s-1.24,1.37-1.76,2.15c-.52.77-.95,1.59-1.31,2.45s-.63,1.74-.81,2.66c-.18.91-.27,1.83-.27,2.76s.09,1.85.28,2.77.45,1.8.8,2.65c.36.86.79,1.68,1.31,2.45.52.78,1.1,1.49,1.76,2.15.66.66,1.37,1.24,2.14,1.77.77.52,1.59.95,2.44,1.31.86.35,1.74.63,2.66.81.91.18,1.83.28,2.76.28Zm0-22.26c.53,0,1.06.05,1.58.15s1.03.26,1.52.46c.49.2.96.45,1.4.74.44.3.85.63,1.22,1.01.38.38.71.78,1.01,1.22.3.44.55.91.75,1.4s.35.99.46,1.52c.1.53.16,1.05.16,1.58s-.05,1.06-.16,1.58-.26,1.03-.46,1.52c-.2.49-.45.96-.75,1.4-.29.44-.63.85-1.01,1.23s-.78.71-1.22,1.01c-.44.3-.91.55-1.4.75s-1,.36-1.52.46c-.52.1-1.05.16-1.57.16s-1.06-.05-1.58-.16-1.03-.26-1.52-.46c-.49-.2-.95-.45-1.4-.75s-.85-.63-1.22-1.01-.71-.79-1.01-1.23c-.3-.44-.55-.91-.75-1.4-.2-.49-.35-.99-.46-1.52s-.16-1.05-.16-1.58c0-.53.06-1.06.16-1.58.1-.52.26-1.03.46-1.52s.45-.96.75-1.4c.29-.44.63-.85,1-1.23.38-.38.79-.71,1.23-1.01.44-.3.91-.55,1.4-.75s.99-.35,1.52-.46c.52-.1,1.04-.16,1.57-.16Z"/>
      <path class="cls-3" d="m341.13,219.14h47.23c.36,0,.71-.06,1.05-.19s.65-.31.92-.54.5-.51.68-.82c.18-.32.29-.66.35-1.01.17-1.27.22-2.54.18-3.81-.04-1.28-.19-2.54-.44-3.79-.25-1.25-.6-2.47-1.06-3.66-.45-1.19-1-2.34-1.65-3.44-.64-1.1-1.37-2.14-2.19-3.12-.81-.98-1.7-1.89-2.67-2.72-.96-.83-1.99-1.58-3.08-2.24s-2.22-1.23-3.41-1.7c-1.91-.79-3.88-1.4-5.91-1.82-2.03-.43-4.07-.66-6.14-.7-2.07-.04-4.13.11-6.17.45s-4.04.87-5.98,1.58c-1.23.46-2.41,1.02-3.55,1.67s-2.2,1.41-3.21,2.25c-1.01.84-1.93,1.77-2.78,2.77-.84,1-1.6,2.07-2.27,3.2-.67,1.13-1.23,2.31-1.69,3.54-.46,1.23-.82,2.49-1.07,3.78-.24,1.29-.38,2.59-.41,3.91s.06,2.62.27,3.92c.06.35.18.68.36.99s.41.57.68.8.57.41.91.53c.33.13.68.18,1.03.18Zm14.02-21.91c3.16-1.13,6.41-1.66,9.76-1.58,3.35.07,6.58.73,9.68,1.99,1.57.61,3.01,1.43,4.34,2.47,1.33,1.03,2.47,2.23,3.45,3.61.97,1.37,1.73,2.85,2.28,4.45s.84,3.23.9,4.91h-41.68c0-.86.08-1.72.22-2.57.14-.85.34-1.69.61-2.52s.6-1.62.98-2.39c.39-.78.83-1.51,1.34-2.22.5-.7,1.05-1.36,1.66-1.98.6-.62,1.24-1.19,1.93-1.71.69-.52,1.42-.98,2.18-1.4s1.55-.77,2.36-1.05Z"/>
      <g class="cls-8">
        <path class="cls-3" d="m586.51,246.06h-236.29c-1.39,0-2.78.07-4.16.2s-2.76.34-4.11.61c-1.36.27-2.71.61-4.04,1.01-1.33.41-2.64.87-3.92,1.41-1.28.53-2.54,1.13-3.76,1.78-1.23.66-2.42,1.37-3.57,2.14-1.16.78-2.27,1.6-3.34,2.48-1.07.88-2.1,1.81-3.08,2.8-.98.98-1.91,2.02-2.79,3.09-.89,1.07-1.71,2.19-2.48,3.35-.78,1.16-1.49,2.35-2.14,3.57-.66,1.23-1.25,2.48-1.78,3.77-.53,1.29-1,2.59-1.4,3.93-.41,1.33-.74,2.68-1.01,4.04-.27,1.36-.47,2.74-.61,4.12-.14,1.39-.2,2.78-.2,4.17s.07,2.78.2,4.16c.14,1.39.34,2.76.61,4.12.27,1.36.6,2.71,1.01,4.04.4,1.33.87,2.64,1.4,3.93.53,1.29,1.13,2.54,1.78,3.77.65,1.23,1.36,2.42,2.14,3.57.77,1.16,1.59,2.28,2.48,3.35.88,1.08,1.81,2.1,2.79,3.09.98.98,2.01,1.92,3.08,2.8,1.07.89,2.19,1.71,3.34,2.48,1.16.77,2.34,1.49,3.57,2.14,1.22.66,2.48,1.25,3.76,1.79,1.28.53,2.59,1,3.92,1.4,1.33.41,2.68.74,4.04,1.02,1.36.27,2.73.47,4.11.61,1.38.14,2.77.2,4.16.2h236.29c1.39,0,2.78-.07,4.16-.2,1.39-.14,2.76-.34,4.12-.61,1.36-.28,2.71-.61,4.04-1.02,1.33-.4,2.64-.87,3.92-1.4,1.29-.54,2.54-1.13,3.77-1.79,1.22-.65,2.42-1.37,3.57-2.14,1.16-.77,2.27-1.6,3.34-2.48,1.07-.88,2.1-1.81,3.08-2.8.98-.98,1.92-2.01,2.8-3.09.88-1.07,1.71-2.19,2.48-3.35.77-1.16,1.48-2.34,2.14-3.57.65-1.22,1.24-2.48,1.78-3.77s1-2.59,1.41-3.93c.4-1.33.74-2.68,1.01-4.04.27-1.36.47-2.73.61-4.12.14-1.39.2-2.77.2-4.16s-.07-2.78-.2-4.17c-.14-1.38-.34-2.76-.61-4.12-.27-1.36-.61-2.71-1.01-4.04-.41-1.33-.88-2.64-1.41-3.93-.53-1.28-1.13-2.54-1.78-3.77-.66-1.22-1.37-2.42-2.14-3.57-.77-1.16-1.6-2.28-2.48-3.35s-1.81-2.1-2.8-3.09c-.98-.98-2.01-1.92-3.08-2.8-1.07-.89-2.19-1.71-3.34-2.48-1.15-.77-2.34-1.48-3.57-2.14s-2.48-1.25-3.77-1.78c-1.28-.54-2.59-1-3.92-1.41-1.33-.4-2.68-.74-4.04-1.01-1.36-.27-2.73-.48-4.12-.61-1.38-.14-2.77-.2-4.16-.2Zm-272.64,42.47c0-1.19.06-2.38.18-3.57.11-1.19.29-2.36.53-3.53.23-1.17.52-2.32.87-3.46.34-1.14.74-2.26,1.2-3.36.45-1.1.96-2.18,1.53-3.22.56-1.05,1.17-2.07,1.83-3.06.66-.99,1.37-1.95,2.13-2.87s1.55-1.8,2.4-2.65,1.72-1.64,2.64-2.4c.92-.76,1.88-1.47,2.86-2.13s2.01-1.28,3.06-1.84c1.05-.56,2.13-1.07,3.22-1.53s2.22-.86,3.36-1.21c1.14-.34,2.29-.64,3.46-.87,1.17-.23,2.34-.41,3.53-.53,1.19-.11,2.38-.18,3.56-.18h56.71v72.8h-56.71c-1.19,0-2.38-.06-3.56-.18-1.18-.12-2.36-.29-3.53-.53-1.17-.23-2.32-.53-3.46-.87-1.14-.35-2.26-.75-3.36-1.21-1.1-.45-2.17-.96-3.22-1.53-1.05-.56-2.07-1.18-3.06-1.84s-1.94-1.37-2.86-2.13c-.92-.76-1.8-1.56-2.64-2.4s-1.64-1.72-2.4-2.65-1.46-1.88-2.13-2.86c-.66-.99-1.27-2.02-1.83-3.06-.56-1.05-1.07-2.13-1.53-3.23-.46-1.1-.86-2.22-1.2-3.36-.35-1.14-.64-2.29-.87-3.46-.23-1.17-.41-2.35-.53-3.54-.12-1.18-.18-2.38-.18-3.56Zm272.64,36.4h-173.52v-72.8h173.52c1.19,0,2.38.06,3.56.17,1.19.12,2.36.29,3.53.53s2.32.52,3.46.87c1.14.34,2.26.74,3.36,1.2,1.1.45,2.18.96,3.22,1.53,1.05.56,2.07,1.17,3.06,1.84.99.66,1.94,1.37,2.86,2.13s1.8,1.56,2.65,2.4c.84.84,1.64,1.72,2.4,2.65s1.46,1.88,2.13,2.87,1.27,2.01,1.83,3.06,1.07,2.13,1.53,3.23c.45,1.1.85,2.22,1.2,3.36.35,1.14.64,2.3.87,3.46.23,1.17.41,2.35.52,3.54.12,1.18.18,2.38.18,3.57s-.06,2.38-.18,3.57c-.11,1.18-.29,2.36-.52,3.53-.23,1.17-.52,2.32-.87,3.46-.34,1.14-.74,2.27-1.2,3.36-.46,1.1-.96,2.18-1.53,3.23s-1.17,2.07-1.83,3.06c-.66.99-1.37,1.95-2.13,2.87s-1.56,1.81-2.4,2.65-1.72,1.65-2.65,2.4-1.88,1.46-2.86,2.13c-.99.66-2.01,1.27-3.06,1.83-1.05.56-2.12,1.07-3.22,1.53-1.1.46-2.22.86-3.36,1.2-1.14.35-2.29.64-3.46.87-1.17.23-2.34.41-3.53.53-1.18.11-2.37.17-3.56.17Z"/>
      </g>
      <g class="cls-7">
        <path class="cls-1" d="m220.48,134.02l-40.2,47.3-40.2-47.3H52.99l83.74,98.27-83.74,98.26h87.08l40.2-47.3,40.2,47.3h87.08l-83.74-98.26,83.74-98.27h-87.08Z"/>
      </g>
      <g class="cls-11">
        <path class="cls-3" d="m676.93,436.43h-140.73c-17.55,0-31.79-14.26-31.79-31.91s14.24-31.91,31.79-31.91h140.73c17.56,0,31.8,14.29,31.8,31.91.03,17.65-14.21,31.91-31.8,31.91Z"/>
      </g>
      <path class="cls-3" d="m607.61,433.49l-12.3-6.71,1.73,13.39,2.27,19.18,8.9-6.11.69-.48,6.12,8.96,2.72-1.86.23-.18,2.72-1.86-6.12-8.96.66-.48,8.9-6.11-16.51-8.78Z"/>
      <g class="cls-9">
        <path class="cls-5" d="m614.84,462.61l-6.12-8.96-9.91,6.83-2.42-20.25-1.91-14.65,13.44,7.34,17.46,9.29-9.91,6.8,6.12,8.96-6.74,4.65Zm-5.79-10.76l6.12,8.95,4.59-3.17-6.12-8.96,9.23-6.35-15.59-8.27-11.19-6.11,1.58,12.14,2.15,18.09,9.23-6.32Z"/>
      </g>
      <path class="cls-5" d="m567.85,405.96h5.22v3.69h-5.22v10.69h-4.06v-25.89h10.72v3.69h-6.66v7.82Z"/>
      <path class="cls-5" d="m576.15,400.66c0-4.14,2.18-6.5,6.15-6.5s6.15,2.36,6.15,6.5v13.45c0,4.13-2.18,6.5-6.15,6.5s-6.15-2.37-6.15-6.5v-13.45Zm4.03,13.72c0,1.86.8,2.55,2.09,2.55s2.09-.69,2.09-2.55v-13.96c0-1.86-.81-2.55-2.09-2.55s-2.09.69-2.09,2.55v13.96Z"/>
      <path class="cls-5" d="m591.08,394.45h4.06v22.2h6.66v3.68h-10.72v-25.89Z"/>
      <path class="cls-5" d="m603.55,394.45h4.06v22.2h6.66v3.68h-10.72v-25.89Z"/>
      <path class="cls-5" d="m615.71,400.66c0-4.14,2.18-6.5,6.15-6.5s6.15,2.36,6.15,6.5v13.45c0,4.13-2.18,6.5-6.15,6.5s-6.15-2.37-6.15-6.5v-13.45Zm4.06,13.72c0,1.86.81,2.55,2.09,2.55s2.09-.69,2.09-2.55v-13.96c0-1.86-.81-2.55-2.09-2.55s-2.09.69-2.09,2.55v13.96Z"/>
      <path class="cls-5" d="m639.65,406.56l-1.46,13.78h-5.55l-2.86-25.89h3.91l2.18,20.4,1.94-20.4h3.91l2.03,20.55,2.09-20.55h3.56l-2.87,25.89h-5.37l-1.49-13.78Z"/>
    </g>
    <g>
      <path class="cls-2" d="m6.44,39.88V8.85l-6.44,1.5v-5.48L9.46.67h4.44v39.21h-7.46Z"/>
      <path class="cls-2" d="m21.51,39.88V.67h7.17v15.85L43.17.67h8.85l-14.46,15.58,14.85,23.63h-8.79l-11.21-18.15-3.75,4.08v14.06h-7.17Z"/>
      <path class="cls-2" d="m56.68,26.67v-6h10.52v-9.69h6.1v9.69h10.48v6h-10.48v9.69h-6.1v-9.69h-10.52Z"/>
      <g>
        <path class="cls-2" d="m189.05,40.54c-2.88,0-5.35-.5-7.42-1.5-2.07-1.01-3.7-2.4-4.88-4.17-1.17-1.78-1.85-3.79-2.04-6.04h7c.34,1.61,1.17,2.95,2.48,4.02,1.3,1.06,2.92,1.58,4.85,1.58,2.09,0,3.8-.76,5.13-2.29,1.33-1.53,2-3.43,2-5.71s-.67-4.21-2-5.58c-1.32-1.39-2.99-2.08-5-2.08-1.68,0-3.14.41-4.38,1.23-1.24.82-2.11,1.85-2.63,3.08h-6.9l3.38-22.42h21.71v6.27h-16.33l-1.79,9.08c.82-.9,1.94-1.64,3.35-2.21,1.42-.58,3-.88,4.75-.88,2.8,0,5.14.63,7,1.88,1.88,1.25,3.29,2.9,4.25,4.94.97,2.03,1.46,4.24,1.46,6.63,0,2.72-.59,5.16-1.77,7.29-1.17,2.13-2.81,3.81-4.92,5.04-2.11,1.22-4.55,1.83-7.31,1.83Z"/>
        <path class="cls-2" d="m209.73,39.88V.67h7.17v15.85l14.5-15.85h8.85l-14.46,15.58,14.85,23.63h-8.79l-11.21-18.15-3.75,4.08v14.06h-7.17Z"/>
        <path class="cls-2" d="m244.9,26.67v-6h10.52v-9.69h6.1v9.69h10.48v6h-10.48v9.69h-6.1v-9.69h-10.52Z"/>
      </g>
      <path class="cls-6" d="m3.65,76.31v-14.94h4.81c1.17,0,2.11.2,2.85.58.75.38,1.3.91,1.65,1.58.36.67.54,1.41.54,2.21,0,.95-.26,1.79-.77,2.54-.5.75-1.29,1.29-2.35,1.6l3.27,6.42h-2.1l-3.04-6.17h-3.06v6.17h-1.79Zm1.79-7.58h2.9c1.15,0,1.99-.27,2.52-.81.53-.55.79-1.27.79-2.15s-.27-1.57-.79-2.08c-.52-.53-1.36-.79-2.54-.79h-2.88v5.83Z"/>
      <path class="cls-6" d="m20.94,76.56c-1.02,0-1.91-.23-2.69-.69-.78-.46-1.4-1.09-1.85-1.92-.45-.83-.67-1.81-.67-2.94s.22-2.08.67-2.92c.44-.83,1.05-1.48,1.83-1.94.79-.46,1.71-.69,2.75-.69s1.91.23,2.65.69c.75.46,1.32,1.07,1.73,1.83.4.75.6,1.56.6,2.42,0,.17-.01.33-.02.48v.54h-8.44c.04.81.23,1.48.56,2.02.33.53.75.93,1.25,1.21.51.27,1.05.4,1.63.4.73,0,1.35-.17,1.85-.52.5-.34.86-.81,1.08-1.4h1.77c-.28.99-.82,1.81-1.63,2.46-.81.64-1.83.96-3.08.96Zm0-9.56c-.85,0-1.6.26-2.27.77-.67.52-1.05,1.27-1.15,2.27h6.67c-.04-.96-.37-1.7-.98-2.23-.61-.54-1.37-.81-2.27-.81Z"/>
      <path class="cls-6" d="m31.37,76.31l-4-10.58h1.88l3.17,8.85,3.21-8.85h1.83l-4.02,10.58h-2.06Z"/>
      <path class="cls-6" d="m40.52,63.37c-.36,0-.66-.11-.9-.33-.24-.23-.35-.53-.35-.9,0-.34.11-.63.35-.85.23-.22.53-.33.9-.33.33,0,.61.11.85.33.25.22.38.51.38.85,0,.36-.13.66-.38.9-.24.22-.52.33-.85.33Zm-.9,12.94v-10.58h1.79v10.58h-1.79Z"/>
      <path class="cls-6" d="m49.29,76.56c-1.02,0-1.91-.23-2.69-.69-.78-.46-1.4-1.09-1.85-1.92-.45-.83-.67-1.81-.67-2.94s.22-2.08.67-2.92c.44-.83,1.05-1.48,1.83-1.94.79-.46,1.71-.69,2.75-.69s1.91.23,2.65.69c.75.46,1.32,1.07,1.73,1.83.4.75.6,1.56.6,2.42,0,.17-.01.33-.02.48v.54h-8.44c.04.81.23,1.48.56,2.02.33.53.75.93,1.25,1.21.51.27,1.05.4,1.63.4.73,0,1.35-.17,1.85-.52.5-.34.86-.81,1.08-1.4h1.77c-.28.99-.82,1.81-1.63,2.46-.81.64-1.83.96-3.08.96Zm0-9.56c-.85,0-1.6.26-2.27.77-.67.52-1.05,1.27-1.15,2.27h6.67c-.04-.96-.37-1.7-.98-2.23-.61-.54-1.37-.81-2.27-.81Z"/>
      <path class="cls-6" d="m58.8,76.31l-3.08-10.58h1.79l2.23,8.29,2.48-8.29h2.02l2.5,8.29,2.21-8.29h1.83l-3.1,10.58h-1.83l-2.6-8.73-2.6,8.73h-1.83Z"/>
      <path class="cls-6" d="m76.79,76.56c-1.27,0-2.32-.32-3.17-.96-.83-.64-1.32-1.51-1.46-2.6h1.83c.11.56.4,1.04.88,1.46.48.41,1.13.6,1.94.6.76,0,1.32-.16,1.67-.48.36-.32.54-.7.54-1.15,0-.64-.24-1.06-.71-1.27-.46-.22-1.1-.42-1.94-.58-.57-.13-1.14-.29-1.71-.5-.57-.21-1.05-.51-1.44-.9-.38-.4-.56-.92-.56-1.56,0-.92.34-1.67,1.02-2.25.69-.59,1.63-.9,2.81-.9s2.04.29,2.75.85c.72.56,1.14,1.35,1.25,2.38h-1.77c-.07-.53-.3-.94-.69-1.25-.39-.3-.91-.46-1.56-.46s-1.14.14-1.48.4c-.35.27-.52.62-.52,1.06s.22.77.67,1.02c.44.24,1.05.44,1.81.6.67.14,1.29.31,1.88.52.59.21,1.08.52,1.46.92.38.41.56.99.56,1.77.01.95-.35,1.73-1.08,2.35-.74.61-1.73.92-2.98.92Z"/>
      <path class="cls-6" d="m176.47,76.31v-14.94h5.25c1.04,0,1.91.17,2.6.5.69.33,1.21.79,1.54,1.38.34.57.52,1.21.52,1.92,0,.97-.27,1.74-.79,2.29-.52.56-1.14.94-1.85,1.15.55.11,1.05.34,1.5.69.46.33.82.76,1.08,1.27.26.5.4,1.06.4,1.67,0,.77-.19,1.46-.56,2.08-.36.61-.91,1.1-1.63,1.46-.72.36-1.6.54-2.65.54h-5.42Zm1.79-8.4h3.33c.94,0,1.67-.22,2.19-.67.51-.46.77-1.08.77-1.88s-.26-1.36-.77-1.81c-.5-.46-1.26-.69-2.27-.69h-3.25v5.04Zm0,6.9h3.44c1.01,0,1.8-.23,2.35-.71.55-.47.83-1.14.83-2s-.29-1.5-.88-2c-.58-.51-1.37-.77-2.35-.77h-3.4v5.48Z"/>
      <path class="cls-6" d="m193.95,76.56c-1.02,0-1.91-.23-2.69-.69-.78-.46-1.4-1.09-1.85-1.92-.45-.83-.67-1.81-.67-2.94s.22-2.08.67-2.92c.44-.83,1.05-1.48,1.83-1.94.79-.46,1.71-.69,2.75-.69s1.91.23,2.65.69c.75.46,1.32,1.07,1.73,1.83.4.75.6,1.56.6,2.42,0,.17-.01.33-.02.48v.54h-8.44c.04.81.23,1.48.56,2.02.33.53.75.93,1.25,1.21.51.27,1.05.4,1.63.4.73,0,1.35-.17,1.85-.52.5-.34.86-.81,1.08-1.4h1.77c-.28.99-.82,1.81-1.63,2.46-.81.64-1.83.96-3.08.96Zm0-9.56c-.85,0-1.6.26-2.27.77-.67.52-1.05,1.27-1.15,2.27h6.67c-.04-.96-.37-1.7-.98-2.23-.61-.54-1.37-.81-2.27-.81Z"/>
      <path class="cls-6" d="m205.38,76.56c-1.27,0-2.32-.32-3.17-.96-.83-.64-1.32-1.51-1.46-2.6h1.83c.11.56.4,1.04.88,1.46.48.41,1.13.6,1.94.6.76,0,1.32-.16,1.67-.48.36-.32.54-.7.54-1.15,0-.64-.24-1.06-.71-1.27-.46-.22-1.1-.42-1.94-.58-.57-.13-1.14-.29-1.71-.5-.57-.21-1.05-.51-1.44-.9-.38-.4-.56-.92-.56-1.56,0-.92.34-1.67,1.02-2.25.69-.59,1.63-.9,2.81-.9s2.04.29,2.75.85c.72.56,1.14,1.35,1.25,2.38h-1.77c-.07-.53-.3-.94-.69-1.25-.39-.3-.91-.46-1.56-.46s-1.14.14-1.48.4c-.35.27-.52.62-.52,1.06s.22.77.67,1.02c.44.24,1.05.44,1.81.6.67.14,1.29.31,1.88.52.59.21,1.08.52,1.46.92.38.41.56.99.56,1.77.01.95-.35,1.73-1.08,2.35-.74.61-1.73.92-2.98.92Z"/>
      <path class="cls-6" d="m216.17,76.31c-.96,0-1.72-.23-2.27-.71-.56-.47-.83-1.32-.83-2.54v-5.81h-1.83v-1.52h1.83l.23-2.54h1.56v2.54h3.1v1.52h-3.1v5.81c0,.67.13,1.12.4,1.35.28.24.76.35,1.44.35h1.1v1.54h-1.63Z"/>
      <path class="cls-6" d="m230.76,76.56c-1.1,0-2.05-.2-2.85-.58-.81-.4-1.43-.96-1.88-1.67-.45-.71-.67-1.53-.67-2.48h1.88c0,.58.13,1.13.4,1.63.28.49.67.88,1.19,1.17.53.29,1.17.44,1.94.44,1.01,0,1.8-.24,2.35-.73.55-.48.83-1.09.83-1.81,0-.59-.14-1.07-.4-1.44-.25-.38-.6-.67-1.04-.9-.43-.22-.93-.42-1.5-.58-.56-.18-1.14-.38-1.75-.58-1.14-.4-1.99-.9-2.54-1.48-.56-.59-.83-1.36-.83-2.31-.02-.8.17-1.51.54-2.13.39-.63.93-1.11,1.63-1.46.71-.34,1.55-.52,2.52-.52s1.78.18,2.48.54c.71.35,1.26.83,1.65,1.46.39.63.59,1.34.6,2.15h-1.88c0-.42-.11-.82-.33-1.23-.21-.4-.53-.73-.96-.98-.43-.26-.97-.4-1.63-.4-.82-.01-1.49.2-2,.63-.52.42-.77,1-.77,1.75,0,.64.18,1.14.54,1.48.36.35.86.64,1.52.85.65.21,1.41.46,2.27.75.71.25,1.34.55,1.92.9.57.33,1.01.77,1.33,1.31.32.54.48,1.24.48,2.08,0,.71-.19,1.39-.56,2.02-.36.63-.92,1.14-1.67,1.54-.75.39-1.69.58-2.81.58Z"/>
      <path class="cls-6" d="m242.99,76.56c-1.02,0-1.91-.23-2.69-.69-.78-.46-1.4-1.09-1.85-1.92-.45-.83-.67-1.81-.67-2.94s.22-2.08.67-2.92c.44-.83,1.05-1.48,1.83-1.94.79-.46,1.71-.69,2.75-.69s1.91.23,2.65.69c.75.46,1.32,1.07,1.73,1.83.4.75.6,1.56.6,2.42,0,.17-.01.33-.02.48v.54h-8.44c.04.81.23,1.48.56,2.02.33.53.75.93,1.25,1.21.51.27,1.05.4,1.63.4.73,0,1.35-.17,1.85-.52.5-.34.86-.81,1.08-1.4h1.77c-.28.99-.82,1.81-1.63,2.46-.81.64-1.83.96-3.08.96Zm0-9.56c-.85,0-1.6.26-2.27.77-.67.52-1.05,1.27-1.15,2.27h6.67c-.04-.96-.37-1.7-.98-2.23-.61-.54-1.37-.81-2.27-.81Z"/>
      <path class="cls-6" d="m250.37,76.31v-15.35h1.79v15.35h-1.79Z"/>
      <path class="cls-6" d="m255.11,76.31v-15.35h1.79v15.35h-1.79Z"/>
      <path class="cls-6" d="m260.92,63.37c-.36,0-.66-.11-.9-.33-.24-.23-.35-.53-.35-.9,0-.34.11-.63.35-.85.23-.22.53-.33.9-.33.33,0,.61.11.85.33.25.22.38.51.38.85,0,.36-.13.66-.38.9-.24.22-.52.33-.85.33Zm-.9,12.94v-10.58h1.79v10.58h-1.79Z"/>
      <path class="cls-6" d="m264.94,76.31v-10.58h1.6l.13,1.9c.33-.67.82-1.19,1.46-1.56.64-.39,1.36-.58,2.19-.58,1.25,0,2.24.39,2.98,1.15.75.75,1.13,1.92,1.13,3.5v6.19h-1.79v-6c0-2.19-.91-3.29-2.73-3.29-.91,0-1.66.33-2.27,1-.6.66-.9,1.59-.9,2.81v5.48h-1.79Z"/>
      <path class="cls-6" d="m281.3,72.97c-.6,0-1.14-.07-1.63-.23l-1.08,1c.17.11.36.21.58.29.23.08.57.16,1.02.23.44.06,1.06.12,1.85.19,1.43.1,2.45.43,3.06.98.61.56.92,1.28.92,2.17,0,.61-.17,1.19-.5,1.75-.33.55-.85,1.01-1.54,1.38-.7.36-1.58.54-2.67.54-.95,0-1.79-.13-2.54-.38-.74-.25-1.31-.64-1.73-1.15-.41-.5-.6-1.14-.6-1.9,0-.41.1-.84.31-1.31.22-.46.63-.89,1.21-1.29-.32-.13-.59-.26-.81-.42-.22-.15-.43-.32-.6-.5v-.5l1.81-1.79c-.83-.71-1.25-1.65-1.25-2.81,0-.69.16-1.32.48-1.9.33-.57.81-1.02,1.44-1.35s1.38-.5,2.27-.5c.61,0,1.17.08,1.67.25h3.92v1.35l-2,.08c.42.6.63,1.29.63,2.06,0,.7-.17,1.33-.5,1.9-.33.57-.81,1.02-1.44,1.35-.61.33-1.37.5-2.27.5Zm0-1.46c.76,0,1.36-.19,1.81-.58.44-.4.67-.97.67-1.71s-.22-1.28-.67-1.67c-.45-.4-1.05-.6-1.81-.6s-1.37.2-1.81.6c-.45.39-.67.95-.67,1.67s.22,1.31.67,1.71c.44.39,1.05.58,1.81.58Zm-3.1,6.17c0,.71.3,1.23.9,1.58.59.34,1.34.52,2.23.52s1.59-.2,2.13-.58c.54-.38.81-.89.81-1.52,0-.46-.19-.85-.56-1.19s-1.06-.53-2.04-.58c-.79-.07-1.47-.15-2.04-.23-.58.32-.97.66-1.15,1.02-.18.36-.27.69-.27.98Z"/>
      <path class="cls-2" d="m352.08,39.88V8.85l-6.44,1.5v-5.48l9.46-4.21h4.44v39.21h-7.46Z"/>
      <g>
        <path class="cls-2" d="m381.19,40.54c-2.88,0-5.35-.5-7.42-1.5-2.07-1.01-3.7-2.4-4.88-4.17-1.17-1.78-1.85-3.79-2.04-6.04h7c.34,1.61,1.17,2.95,2.48,4.02,1.3,1.06,2.92,1.58,4.85,1.58,2.09,0,3.8-.76,5.13-2.29,1.33-1.53,2-3.43,2-5.71s-.67-4.21-2-5.58c-1.32-1.39-2.99-2.08-5-2.08-1.68,0-3.14.41-4.38,1.23-1.24.82-2.11,1.85-2.63,3.08h-6.9l3.38-22.42h21.71v6.27h-16.33l-1.79,9.08c.82-.9,1.94-1.64,3.35-2.21,1.42-.58,3-.88,4.75-.88,2.8,0,5.14.63,7,1.88,1.88,1.25,3.29,2.9,4.25,4.94.97,2.03,1.46,4.24,1.46,6.63,0,2.72-.59,5.16-1.77,7.29-1.17,2.13-2.81,3.81-4.92,5.04-2.11,1.22-4.55,1.83-7.31,1.83Z"/>
        <path class="cls-2" d="m417.93,40.54c-3.61,0-6.71-.84-9.29-2.54-2.57-1.69-4.56-4.06-5.96-7.1-1.41-3.04-2.1-6.58-2.1-10.63s.7-7.51,2.1-10.56c1.4-3.07,3.39-5.45,5.96-7.15,2.58-1.71,5.68-2.56,9.29-2.56s6.72.85,9.29,2.56c2.58,1.7,4.57,4.08,5.98,7.15,1.4,3.06,2.1,6.58,2.1,10.56s-.7,7.58-2.1,10.63c-1.41,3.04-3.4,5.41-5.98,7.1-2.57,1.7-5.67,2.54-9.29,2.54Zm0-6.44c2.96,0,5.36-1.23,7.23-3.69,1.86-2.47,2.79-5.85,2.79-10.15s-.93-7.67-2.79-10.13c-1.86-2.47-4.27-3.71-7.23-3.71s-5.41,1.24-7.25,3.71c-1.85,2.46-2.77,5.83-2.77,10.13s.92,7.68,2.77,10.15c1.84,2.46,4.26,3.69,7.25,3.69Z"/>
      </g>
      <path class="cls-2" d="m440.96,26.67v-6h10.52v-9.69h6.1v9.69h10.48v6h-10.48v9.69h-6.1v-9.69h-10.52Z"/>
      <path class="cls-6" d="m349.29,76.31v-14.94h2.08l5.38,10.42,5.33-10.42h2.13v14.94h-1.79v-11.73l-5,9.6h-1.35l-4.98-9.58v11.71h-1.79Z"/>
      <path class="cls-6" d="m372,76.56c-1.02,0-1.91-.23-2.69-.69-.78-.46-1.4-1.09-1.85-1.92-.45-.83-.67-1.81-.67-2.94s.22-2.08.67-2.92c.44-.83,1.05-1.48,1.83-1.94.79-.46,1.71-.69,2.75-.69s1.91.23,2.65.69c.75.46,1.32,1.07,1.73,1.83.4.75.6,1.56.6,2.42,0,.17-.01.33-.02.48v.54h-8.44c.04.81.23,1.48.56,2.02.33.53.75.93,1.25,1.21.51.27,1.05.4,1.63.4.73,0,1.35-.17,1.85-.52.5-.34.86-.81,1.08-1.4h1.77c-.28.99-.82,1.81-1.63,2.46-.81.64-1.83.96-3.08.96Zm0-9.56c-.85,0-1.6.26-2.27.77-.67.52-1.05,1.27-1.15,2.27h6.67c-.04-.96-.37-1.7-.98-2.23-.61-.54-1.37-.81-2.27-.81Z"/>
      <path class="cls-6" d="m379.38,76.31v-10.58h1.6l.13,1.9c.33-.67.82-1.19,1.46-1.56.64-.39,1.36-.58,2.19-.58,1.25,0,2.24.39,2.98,1.15.75.75,1.13,1.92,1.13,3.5v6.19h-1.79v-6c0-2.19-.91-3.29-2.73-3.29-.91,0-1.66.33-2.27,1-.6.66-.9,1.59-.9,2.81v5.48h-1.79Z"/>
      <path class="cls-6" d="m395.44,76.56c-1.25,0-2.25-.38-3-1.13-.74-.76-1.1-1.94-1.1-3.52v-6.19h1.79v6c0,2.21.9,3.31,2.71,3.31.93,0,1.69-.33,2.29-1,.61-.67.92-1.61.92-2.83v-5.48h1.79v10.58h-1.63l-.13-1.9c-.32.67-.81,1.2-1.46,1.58-.66.38-1.39.56-2.19.56Z"/>
      <path class="cls-6" d="m407.82,76.56c-1.27,0-2.32-.32-3.17-.96-.83-.64-1.32-1.51-1.46-2.6h1.83c.11.56.4,1.04.88,1.46.48.41,1.13.6,1.94.6.76,0,1.32-.16,1.67-.48.36-.32.54-.7.54-1.15,0-.64-.24-1.06-.71-1.27-.46-.22-1.1-.42-1.94-.58-.57-.13-1.14-.29-1.71-.5-.57-.21-1.05-.51-1.44-.9-.38-.4-.56-.92-.56-1.56,0-.92.34-1.67,1.02-2.25.69-.59,1.63-.9,2.81-.9s2.04.29,2.75.85c.72.56,1.14,1.35,1.25,2.38h-1.77c-.07-.53-.3-.94-.69-1.25-.39-.3-.91-.46-1.56-.46s-1.14.14-1.48.4c-.35.27-.52.62-.52,1.06s.22.77.67,1.02c.44.24,1.05.44,1.81.6.67.14,1.29.31,1.88.52.59.21,1.08.52,1.46.92.38.41.56.99.56,1.77.01.95-.35,1.73-1.08,2.35-.74.61-1.73.92-2.98.92Z"/>
    </g>
  </g>
</svg>