<?xml version="1.0" encoding="UTF-8"?>
<svg id="Layer_2" data-name="Layer 2" xmlns="http://www.w3.org/2000/svg" xmlns:xlink="http://www.w3.org/1999/xlink" viewBox="0 0 149.98 38">
  <defs>
    <style>
      .cls-1 {
        fill: #6c3916;
      }

      .cls-1, .cls-2 {
        stroke-width: 0px;
      }

      .cls-2, .cls-3 {
        fill: none;
      }

      .cls-4 {
        clip-path: url(#clippath-1);
      }

      .cls-5 {
        clip-path: url(#clippath);
      }

      .cls-3 {
        stroke: #6c3916;
        stroke-width: 4px;
      }
    </style>
    <clipPath id="clippath">
      <rect class="cls-2" width="149.98" height="38"/>
    </clipPath>
    <clipPath id="clippath-1">
      <path class="cls-2" d="m19.02,0h111.9c5.05,0,9.88,2.01,13.45,5.57,3.57,3.56,5.57,8.4,5.57,13.44s-2,9.88-5.57,13.45c-3.57,3.57-8.4,5.57-13.45,5.57H19.02c-5.04,0-9.88-2-13.45-5.57C2.01,28.9,0,24.06,0,19.02S2.01,9.14,5.57,5.57C9.14,2.01,13.97,0,19.02,0Z"/>
    </clipPath>
  </defs>
  <g id="Layer_1-2" data-name="Layer 1">
    <g>
      <g class="cls-5">
        <g class="cls-4">
          <path class="cls-3" d="m19.02,0h111.9C135.96,0,140.79,2.01,144.36,5.57c3.57,3.56,5.57,8.4,5.57,13.44s-2,9.88-5.57,13.45c-3.57,3.57-8.4,5.57-13.45,5.57H19.02c-5.04,0-9.88-2-13.45-5.57C2.01,28.9,0,24.06,0,19.02S2.01,9.14,5.57,5.57C9.14,2.01,13.97,0,19.02,0Z"/>
        </g>
      </g>
      <g>
        <path class="cls-1" d="m37.13,23.21c3.4,0,5.79-2.4,5.79-5.81s-2.4-5.81-5.79-5.81-5.79,2.42-5.79,5.81,2.38,5.81,5.79,5.81Zm-4.35-5.81c0-2.6,1.77-4.4,4.35-4.4s4.33,1.79,4.33,4.4-1.77,4.4-4.33,4.4-4.35-1.79-4.35-4.4Z"/>
        <path class="cls-1" d="m45.32,23h1.35v-3.85c0-2.38,1.19-3.21,2.69-3.21h.81v-1.25h-.75c-1.42,0-2.23.46-2.83,1.46l-.17-1.46h-1.1v8.31Z"/>
        <path class="cls-1" d="m55.88,23.21c1.35,0,2.5-.56,3.25-1.48l.17,1.27h1.1v-11.83h-1.33v4.69c-.77-.85-1.88-1.38-3.19-1.38-2.46,0-4.23,1.85-4.23,4.35s1.77,4.38,4.23,4.38Zm-2.9-4.38c0-1.79,1.27-3.06,3.06-3.06s3.06,1.27,3.06,3.06-1.25,3.08-3.06,3.08-3.06-1.27-3.06-3.08Z"/>
        <path class="cls-1" d="m66.97,23.21c1.88,0,3.42-1,4.08-2.63h-1.52c-.5.88-1.46,1.35-2.54,1.35-1.58,0-2.71-.98-2.92-2.56h7.19c.1-2.9-1.63-4.9-4.27-4.9s-4.27,1.79-4.27,4.35,1.75,4.38,4.25,4.38Zm-2.88-5c.25-1.48,1.35-2.46,2.9-2.46s2.65.94,2.94,2.46h-5.83Z"/>
        <path class="cls-1" d="m73.55,23h1.35v-3.85c0-2.38,1.19-3.21,2.69-3.21h.81v-1.25h-.75c-1.42,0-2.23.46-2.83,1.46l-.17-1.46h-1.1v8.31Z"/>
        <path class="cls-1" d="m84.64,23h1.4v-8.77l6.19,8.77h1.31v-11.21h-1.38v8.77l-6.19-8.77h-1.33v11.21Z"/>
        <path class="cls-1" d="m100.4,23.21c2.58,0,4.4-1.83,4.4-4.38s-1.81-4.35-4.4-4.35-4.4,1.81-4.4,4.35,1.81,4.38,4.4,4.38Zm-3.06-4.38c0-1.79,1.27-3.06,3.06-3.06s3.06,1.27,3.06,3.06-1.27,3.08-3.06,3.08-3.06-1.25-3.06-3.08Z"/>
        <path class="cls-1" d="m108.88,23h1.29l2.4-6.31,1.1,2.9,1.31,3.42h1.29l2.98-8.31h-1.42l-1.35,3.77-.88,2.52-2.44-6.29h-1.23l-1.42,3.77-.98,2.54-.9-2.54-1.33-3.77h-1.42l2.98,8.31Z"/>
      </g>
    </g>
  </g>
</svg>