<?xml version="1.0" encoding="UTF-8"?>
<svg id="Layer_2" data-name="Layer 2" xmlns="http://www.w3.org/2000/svg" xmlns:xlink="http://www.w3.org/1999/xlink" viewBox="0 0 252.52 71.51">
  <defs>
    <style>
      .cls-1 {
        clip-path: url(#clippath-2);
      }

      .cls-2 {
        fill: none;
      }

      .cls-2, .cls-3, .cls-4, .cls-5 {
        stroke-width: 0px;
      }

      .cls-6 {
        clip-path: url(#clippath-1);
      }

      .cls-3, .cls-5 {
        fill: #fff;
      }

      .cls-4 {
        fill: #6d3816;
      }

      .cls-5 {
        fill-rule: evenodd;
      }

      .cls-7 {
        clip-path: url(#clippath);
      }
    </style>
    <clipPath id="clippath">
      <rect class="cls-2" width="252.52" height="71.51"/>
    </clipPath>
    <clipPath id="clippath-1">
      <path class="cls-2" d="m35.76,0h180.76c9.48,0,18.58,3.77,25.29,10.47,6.7,6.7,10.47,15.8,10.47,25.28s-3.77,18.58-10.47,25.28c-6.71,6.71-15.8,10.47-25.29,10.47H35.76c-9.48,0-18.58-3.77-25.28-10.47C3.77,54.33,0,45.24,0,35.76S3.77,17.18,10.47,10.47C17.18,3.77,26.27,0,35.76,0Z"/>
    </clipPath>
    <clipPath id="clippath-2">
      <rect class="cls-2" x="186.97" y="14.17" width="43" height="43"/>
    </clipPath>
  </defs>
  <g id="Layer_1-2" data-name="Layer 1">
    <g>
      <g class="cls-7">
        <g class="cls-6">
          <path class="cls-4" d="m0,0h252.24v71.51H0V0Z"/>
        </g>
      </g>
      <g class="cls-1">
        <path class="cls-5" d="m208.56,14.17c11.92,0,21.59,9.67,21.59,21.58s-9.67,21.59-21.59,21.59-21.58-9.67-21.58-21.59,9.67-21.58,21.58-21.58Zm-9.71,11.87v2.77h14.72l-14.72,14.72,1.94,1.94,14.72-14.72v14.72h2.76v-19.43h-19.43Z"/>
      </g>
      <path class="cls-3" d="m37.3,43.57c-1.83,0-3.44-.4-4.81-1.21-1.38-.8-2.45-1.94-3.23-3.4-.78-1.46-1.17-3.14-1.17-5.04s.39-3.57,1.17-5.02c.78-1.46,1.85-2.59,3.23-3.4,1.38-.82,2.98-1.23,4.81-1.23s3.46.41,4.83,1.23c1.38.81,2.44,1.94,3.21,3.4.76,1.45,1.15,3.12,1.15,5.02s-.39,3.58-1.15,5.04c-.77,1.46-1.83,2.59-3.21,3.4-1.38.81-2.99,1.21-4.83,1.21Zm0-1.96c1.36,0,2.56-.3,3.6-.92,1.04-.63,1.84-1.51,2.42-2.65.58-1.15.88-2.53.88-4.13s-.29-2.96-.88-4.1c-.57-1.14-1.38-2.01-2.42-2.63-1.04-.61-2.24-.92-3.6-.92s-2.58.31-3.63.92c-1.04.61-1.85,1.49-2.44,2.63-.57,1.14-.85,2.51-.85,4.1s.28,2.97.85,4.13c.58,1.14,1.4,2.02,2.44,2.65,1.04.61,2.25.92,3.63.92Z"/>
      <path class="cls-3" d="m49.57,43.26v-13.23h2.04l.19,2.54c.4-.88,1.02-1.57,1.85-2.08.83-.51,1.86-.77,3.1-.77v2.33h-.63c-.78,0-1.5.14-2.17.42-.66.28-1.18.75-1.56,1.42-.39.66-.58,1.56-.58,2.71v6.67h-2.25Z"/>
      <path class="cls-3" d="m65.25,43.57c-1.31,0-2.45-.3-3.44-.9-.99-.61-1.76-1.44-2.31-2.48-.54-1.05-.81-2.25-.81-3.58s.28-2.51.83-3.54c.55-1.04,1.32-1.86,2.29-2.46.98-.59,2.15-.9,3.48-.9,1.08,0,2.04.22,2.88.67.83.45,1.48,1.06,1.94,1.85v-8.19h2.25v19.21h-2.02l-.23-2.19c-.42.64-1.03,1.22-1.83,1.73-.81.51-1.81.77-3.02.77Zm.25-1.94c.89,0,1.67-.21,2.35-.63.68-.42,1.21-1,1.58-1.75.39-.75.58-1.61.58-2.6s-.2-1.88-.58-2.63c-.38-.75-.91-1.33-1.58-1.75-.68-.42-1.47-.63-2.35-.63s-1.66.21-2.33.63c-.68.42-1.22,1-1.6,1.75-.38.75-.56,1.63-.56,2.63s.19,1.85.56,2.6c.39.75.92,1.33,1.6,1.75.68.42,1.46.63,2.33.63Z"/>
      <path class="cls-3" d="m81.95,43.57c-1.27,0-2.39-.29-3.38-.85-.97-.58-1.74-1.39-2.31-2.42-.56-1.03-.83-2.24-.83-3.65s.28-2.6.83-3.65c.55-1.04,1.32-1.84,2.31-2.42.98-.58,2.13-.88,3.42-.88s2.38.29,3.31.88c.94.57,1.67,1.33,2.17,2.27.5.95.75,1.96.75,3.04,0,.2-.01.39-.02.58-.02.2-.02.42-.02.67h-10.52c.05,1.02.29,1.85.71,2.52s.94,1.17,1.56,1.5c.64.33,1.31.5,2.02.5.92,0,1.69-.21,2.31-.63.63-.43,1.07-1.01,1.35-1.73h2.23c-.36,1.22-1.05,2.24-2.06,3.04-1,.81-2.28,1.21-3.83,1.21Zm0-11.96c-1.07,0-2.02.33-2.85.98-.82.64-1.29,1.58-1.42,2.83h8.31c-.06-1.19-.47-2.13-1.23-2.79-.77-.68-1.7-1.02-2.81-1.02Z"/>
      <path class="cls-3" d="m91.16,43.26v-13.23h2.04l.19,2.54c.4-.88,1.02-1.57,1.85-2.08.83-.51,1.86-.77,3.1-.77v2.33h-.63c-.78,0-1.5.14-2.17.42-.66.28-1.18.75-1.56,1.42-.39.66-.58,1.56-.58,2.71v6.67h-2.25Z"/>
      <path class="cls-3" d="m108.04,43.26v-18.67h2.23l9.96,14.96v-14.96h2.23v18.67h-2.23l-9.96-14.96v14.96h-2.23Z"/>
      <path class="cls-3" d="m132.3,43.57c-1.25,0-2.38-.29-3.38-.85-.99-.57-1.77-1.36-2.35-2.4-.58-1.04-.88-2.26-.88-3.67s.29-2.64.88-3.67c.59-1.04,1.4-1.84,2.4-2.42,1.01-.57,2.14-.85,3.38-.85s2.36.29,3.35.85c1,.57,1.78,1.38,2.35,2.42.58,1.03.88,2.25.88,3.67s-.29,2.63-.88,3.67c-.58,1.03-1.39,1.83-2.4,2.4-1,.57-2.12.85-3.35.85Zm0-1.92c.76,0,1.47-.19,2.13-.56.65-.38,1.18-.93,1.58-1.67.42-.75.63-1.67.63-2.77s-.2-2.03-.6-2.77c-.39-.75-.92-1.31-1.58-1.69-.66-.38-1.35-.56-2.1-.56s-1.48.19-2.15.56c-.66.38-1.18.94-1.58,1.69-.41.74-.6,1.66-.6,2.77s.2,2.02.6,2.77c.4.74.93,1.29,1.58,1.67.65.38,1.35.56,2.1.56Z"/>
      <path class="cls-3" d="m144.71,43.26l-3.85-13.23h2.23l2.81,10.38,3.08-10.38h2.54l3.1,10.38,2.79-10.38h2.25l-3.85,13.23h-2.29l-3.25-10.92-3.27,10.92h-2.29Z"/>
    </g>
  </g>
</svg>