<?xml version="1.0" encoding="UTF-8"?>
<svg id="Layer_2" data-name="Layer 2" xmlns="http://www.w3.org/2000/svg" xmlns:xlink="http://www.w3.org/1999/xlink" viewBox="0 0 200.47 183.1">
  <defs>
    <style>
      .cls-1 {
        fill: #a97d51;
      }

      .cls-1, .cls-2, .cls-3, .cls-4 {
        stroke-width: 0px;
      }

      .cls-2 {
        fill: #f9ef5d;
      }

      .cls-3 {
        fill: #010101;
      }

      .cls-5 {
        fill: #6d3816;
        font-family: Poppins-Regular, Poppins;
        font-size: 8.97px;
      }

      .cls-4 {
        fill: none;
      }

      .cls-6 {
        clip-path: url(#clippath);
      }
    </style>
    <clipPath id="clippath">
      <rect class="cls-4" width="200.47" height="183.1"/>
    </clipPath>
  </defs>
  <g id="Layer_1-2" data-name="Layer 1">
    <g>
      <g class="cls-6">
        <path class="cls-3" d="m195.44,179.29c-13.46-10.7-23.51-25.96-28.67-42.8,2.66-.52,5.29-1.2,7.88-2.07,6.84-2.29,13.49-5.96,18.18-11.97,7.85-9.9,6.11-22.79-.04-32.99-1.42-2.44-3.04-4.72-4.76-6.89,1.64-1.89,3.2-3.88,4.62-6,12.58-18.7,4.98-35.66-14.74-42.4-5.54-1.95-11.28-2.97-17.06-3.49-.45-2.79-1.14-5.56-2.14-8.23-3.72-10.4-12.41-18.2-22.79-20.22-12.95-2.63-25.78,1.91-36.83,8.71-1.92-1.4-3.89-2.73-5.94-3.93-7.5-4.33-15.98-7.29-24.72-5.92-12.07,1.84-19.25,12.31-21.37,24.21-3.19.15-6.38.42-9.55.89-11.67,1.87-24.16,6.24-31.31,16.78-3.86,5.69-5.13,13.12-3.71,19.92.95,4.82,2.9,9.29,5.39,13.37.67,1.17,1.59,2.47,2.34,3.57.65,1.01,1.39,1.77,2.3,2.61-.68.48-1.22.9-1.77,1.46-.31.32-.84,1-1.17,1.35-.42.45-1.17,1.38-1.55,1.88-6.88,8.46-11.17,20.69-4.25,30.61,5.88,8.36,15.73,11.89,25.02,13.84,2.59.52,5.21.87,7.82,1.14.86,6.61,3.14,13.13,7.2,18.37,13.78,17.75,38.2,13.32,55.09,3.15,2.15,1.47,4.35,2.82,6.63,4.06,8.31,4.41,17.6,7.15,27.09,5.48,6.71-1.16,12.13-4.6,16.12-9.45,3.28,3.03,6.79,5.79,10.42,8.26,12.76,8.86,27.29,13.96,41.09,20.51l-4.83-3.83Zm-44.25-28.33c-1.25-1.29-2.45-2.63-3.6-4.01-.68,1.24-1.45,2.42-2.32,3.52-.07.08-.13.16-.19.25-7.11,9.08-19.39,9.97-29.57,6.44-5.4-1.74-10.49-4.53-15.24-7.8l-1.23-.84-1.24.77c-10.55,6.59-23.33,11.28-35.6,8.67-9.1-1.81-16.68-8.62-19.9-17.76-1.31-3.5-1.99-7.31-2.39-11.08-6.5-.4-13.04-1.26-19.21-3.4-19.35-6.65-22.91-21.72-10.19-38.01,1.34-1.69,2.93-3.4,4.13-5.17-.99-1.75-2.33-3.49-3.45-5.2C-2.59,56.65,5.42,38.46,27.64,31.69c7.16-2.23,14.68-2.97,22.13-3.05.9-5.86,2.79-11.75,6.33-16.19,11.65-14.33,30.92-6.08,42.73,3.81,10.65-6.81,23.65-11.92,36.12-9.19,12.51,2.66,19.82,13.5,21.15,26.44l.25,2.18c3.71.29,7.52.62,11.16,1.31,8.42,1.67,17.58,4.71,22.96,12.06,7.55,10.53-.41,23.56-8,31.42l-1.79,1.91,1.71,2.01c15.82,18.18,14.07,36.7-9.36,44.72-2.53.86-5.12,1.52-7.74,2.01-1.47.29-2.95.52-4.43.71.51,1.8,1.09,3.57,1.71,5.33h0c1.77,5.01,3.97,9.85,6.52,14.43,5.28,9.47,12.16,17.93,20.24,24.72-13.57-6.66-27.56-14.4-38.18-25.37Z"/>
      </g>
      <path class="cls-2" d="m54.32,62.39l1.21-5.22-4.05-3.51,5.35-.46,2.08-4.92,2.08,4.92,5.35.46-4.05,3.51,1.21,5.22-4.59-2.77-4.59,2.77Z"/>
      <path class="cls-1" d="m29.53,62.14c.85-.65,1.8-1.16,2.85-1.54s2.15-.56,3.3-.56,2.25.19,3.3.56,2,.89,2.85,1.54c.58-.68,1.04-1.46,1.36-2.33s.49-1.79.49-2.78c0-2.22-.78-4.1-2.34-5.66s-3.45-2.34-5.66-2.34-4.1.78-5.66,2.34c-1.56,1.56-2.34,3.45-2.34,5.66,0,.98.16,1.91.49,2.78s.78,1.64,1.36,2.33Zm6.15-4.1c-.98,0-1.81-.34-2.49-1.01s-1.01-1.5-1.01-2.49.34-1.81,1.01-2.49,1.5-1.01,2.49-1.01,1.81.34,2.49,1.01,1.01,1.5,1.01,2.49-.34,1.81-1.01,2.49-1.5,1.01-2.49,1.01Zm0,9c-1.38,0-2.68-.26-3.9-.79s-2.28-1.24-3.18-2.14-1.61-1.96-2.14-3.18-.79-2.52-.79-3.9.26-2.68.79-3.9,1.24-2.28,2.14-3.18,1.96-1.61,3.18-2.14,2.52-.79,3.9-.79,2.68.26,3.9.79,2.28,1.24,3.18,2.14,1.61,1.96,2.14,3.18.79,2.52.79,3.9-.26,2.68-.79,3.9-1.24,2.28-2.14,3.18-1.96,1.61-3.18,2.14-2.52.79-3.9.79Zm0-2c.88,0,1.72-.13,2.5-.39s1.5-.63,2.15-1.11c-.65-.48-1.37-.85-2.15-1.11-.78-.26-1.62-.39-2.5-.39s-1.72.13-2.5.39c-.78.26-1.5.63-2.15,1.11.65.48,1.37.85,2.15,1.11s1.62.39,2.5.39Zm0-9c.43,0,.79-.14,1.08-.43.28-.28.43-.64.43-1.08s-.14-.79-.43-1.08c-.28-.28-.64-.43-1.08-.43s-.79.14-1.08.43-.43.64-.43,1.08.14.79.43,1.08.64.43,1.08.43Z"/>
      <path class="cls-2" d="m70.32,62.39l1.21-5.22-4.05-3.51,5.35-.46,2.08-4.92,2.08,4.92,5.35.46-4.05,3.51,1.21,5.22-4.59-2.77-4.59,2.77Z"/>
      <path class="cls-2" d="m86.33,62.39l1.21-5.22-4.05-3.51,5.35-.46,2.08-4.92,2.08,4.92,5.35.46-4.05,3.51,1.21,5.22-4.59-2.77-4.59,2.77Z"/>
      <path class="cls-2" d="m102.34,62.39l1.21-5.22-4.05-3.51,5.35-.46,2.08-4.92,2.08,4.92,5.35.46-4.05,3.51,1.21,5.22-4.59-2.77-4.59,2.77Z"/>
      <path class="cls-2" d="m118.34,62.39l1.21-5.22-4.05-3.51,5.35-.46,2.08-4.92,2.08,4.92,5.35.46-4.05,3.51,1.21,5.22-4.59-2.77-4.59,2.77Z"/>
      <text class="cls-5" transform="translate(46.77 78.75)"><tspan x="0" y="0">Boost your productivity and</tspan><tspan x="0" y="10.76">build your mood with a cup</tspan><tspan x="0" y="21.52">of coffee in the morning, </tspan><tspan x="0" y="32.27">100% natural from garden.</tspan></text>
    </g>
  </g>
</svg>