<?xml version="1.0" encoding="UTF-8"?>
<svg id="Layer_2" data-name="Layer 2" xmlns="http://www.w3.org/2000/svg" xmlns:xlink="http://www.w3.org/1999/xlink" viewBox="0 0 68 68">
  <defs>
    <style>
      .cls-1 {
        fill: #6dc06c;
      }

      .cls-1, .cls-2, .cls-3 {
        stroke-width: 0px;
      }

      .cls-2 {
        fill: none;
      }

      .cls-3 {
        fill: #fff;
      }

      .cls-4 {
        clip-path: url(#clippath);
      }
    </style>
    <clipPath id="clippath">
      <rect class="cls-2" width="68" height="68"/>
    </clipPath>
  </defs>
  <g id="Layer_1-2" data-name="Layer 1">
    <g>
      <g class="cls-4">
        <path class="cls-1" d="m21.76,0h24.48C46.95,0,47.67.04,48.38.11c.71.07,1.41.17,2.11.31.7.14,1.39.31,2.07.52.68.21,1.35.45,2.01.72.66.28,1.3.58,1.93.92.63.33,1.24.7,1.83,1.09.59.4,1.16.82,1.71,1.28.55.45,1.08.93,1.58,1.43.5.51.98,1.03,1.43,1.58s.88,1.12,1.27,1.71.76,1.2,1.1,1.83c.33.63.64,1.27.91,1.93.28.66.52,1.33.72,2.01.21.68.38,1.38.52,2.07s.24,1.4.31,2.11c.07.71.1,1.42.1,2.13v24.48c0,.71-.03,1.43-.1,2.14-.07.71-.17,1.41-.31,2.11-.14.7-.31,1.39-.52,2.07-.2.68-.44,1.35-.72,2.01-.27.66-.58,1.3-.91,1.93-.34.63-.7,1.24-1.1,1.83-.4.59-.82,1.17-1.27,1.72-.45.55-.93,1.08-1.43,1.58s-1.03.98-1.58,1.44-1.13.88-1.71,1.27c-.59.4-1.2.76-1.83,1.1-.63.33-1.27.64-1.93.91-.66.27-1.33.51-2.01.72s-1.37.38-2.07.52c-.7.14-1.41.24-2.11.31-.71.07-1.42.1-2.13.1h-24.48c-.71,0-1.42-.04-2.13-.1-.71-.07-1.41-.18-2.11-.31-.7-.14-1.39-.31-2.07-.52s-1.35-.45-2.01-.72c-.66-.27-1.3-.58-1.93-.91-.63-.34-1.24-.7-1.83-1.1-.59-.4-1.16-.82-1.71-1.27s-1.08-.93-1.58-1.44c-.5-.5-.98-1.03-1.43-1.58-.45-.55-.88-1.13-1.27-1.72-.4-.59-.77-1.2-1.1-1.83-.34-.63-.64-1.28-.91-1.93-.28-.66-.52-1.33-.72-2.01-.21-.68-.38-1.37-.52-2.07-.14-.7-.24-1.4-.31-2.11-.07-.71-.1-1.42-.1-2.14v-24.48c0-.71.03-1.42.1-2.13.07-.71.17-1.42.31-2.11.14-.7.31-1.39.52-2.07.2-.68.44-1.35.72-2.01.27-.66.57-1.3.91-1.93.33-.63.7-1.24,1.1-1.83.4-.59.82-1.16,1.27-1.71.45-.55.93-1.08,1.43-1.58.51-.51,1.03-.98,1.58-1.43.55-.45,1.13-.88,1.71-1.28.59-.4,1.2-.76,1.83-1.09.63-.34,1.27-.64,1.93-.92.66-.27,1.33-.51,2.01-.72.68-.2,1.37-.38,2.07-.52.7-.14,1.41-.24,2.11-.31C20.34.04,21.05,0,21.76,0Z"/>
      </g>
      <path class="cls-3" d="m43.55,47.73c-.35,0-.7-.04-1.05-.14-5.33-1.41-10.23-5.49-13.42-8.67-3.18-3.18-7.26-8.08-8.67-13.41-.32-1.22-.07-2.5.69-3.51.76-1.02,1.93-1.61,3.19-1.64l4.85-.11c1.51-.04,2.77,1.07,2.93,2.57l.41,3.69c.09.89-.21,1.77-.85,2.41l-1.58,1.57c1.65,3.31,4.16,5.82,7.47,7.47l1.58-1.58c.64-.64,1.51-.94,2.41-.84l3.69.41c1.5.16,2.6,1.42,2.57,2.93l-.11,4.85c-.03,1.27-.63,2.44-1.64,3.2-.72.54-1.58.82-2.46.82Zm-14.34-25.2h-.01l-4.85.11c-.57.01-1.08.28-1.42.73-.34.45-.45,1.01-.31,1.55.71,2.67,2.68,6.98,8.08,12.38,5.4,5.4,9.71,7.37,12.38,8.07.54.15,1.1.03,1.55-.3.45-.34.71-.86.73-1.42l.11-4.85c0-.31-.22-.57-.53-.6l-3.69-.4c-.2-.02-.4.05-.54.19l-2.15,2.15c-.34.34-.84.43-1.28.23-4.43-1.98-7.68-5.23-9.67-9.66-.19-.43-.1-.94.23-1.28l2.15-2.15c.14-.14.21-.34.19-.54l-.41-3.69c-.03-.31-.28-.53-.59-.53Z"/>
      <path class="cls-3" d="m13.59,58.6c-.44,0-.86-.26-1.05-.69-.25-.58.02-1.26.59-1.51l9.63-4.18c.33-.14.7-.12,1.01.05,3.11,1.74,6.65,2.67,10.23,2.67,11.55,0,20.94-9.4,20.94-20.94s-9.4-20.94-20.94-20.94-20.94,9.39-20.94,20.94c0,3.43.85,6.83,2.45,9.84.3.56.09,1.25-.47,1.55s-1.25.09-1.55-.47c-1.78-3.34-2.72-7.11-2.72-10.92,0-12.81,10.42-23.23,23.22-23.23s23.23,10.42,23.23,23.23-10.42,23.23-23.23,23.23c-3.78,0-7.52-.93-10.84-2.68l-9.11,3.96c-.15.06-.3.09-.45.09Z"/>
    </g>
  </g>
</svg>