<?xml version="1.0" encoding="UTF-8"?>
<svg id="Layer_2" data-name="Layer 2" xmlns="http://www.w3.org/2000/svg" xmlns:xlink="http://www.w3.org/1999/xlink" viewBox="0 0 69 74.96">
  <defs>
    <style>
      .cls-1 {
        fill: #010101;
      }

      .cls-1, .cls-2 {
        stroke-width: 0px;
      }

      .cls-2 {
        fill: none;
      }

      .cls-3 {
        clip-path: url(#clippath-1);
      }

      .cls-4 {
        clip-path: url(#clippath);
      }
    </style>
    <clipPath id="clippath">
      <rect class="cls-2" x="25.45" y="12.3" width="43.55" height="62.67"/>
    </clipPath>
    <clipPath id="clippath-1">
      <rect class="cls-2" width="42.79" height="61.63"/>
    </clipPath>
  </defs>
  <g id="Layer_1-2" data-name="Layer 1">
    <g>
      <g class="cls-4">
        <path class="cls-1" d="m68.96,74.71c-1.98-3.16-3.97-6.32-5.96-9.47l-2.98-4.72-2.99-4.73-5.99-9.44-5.63-8.85,7.24-10.63,1.91-2.8c.64-.93,1.27-1.86,1.91-2.79l3.85-5.56,1.56-2.24-20.55-.14-.43.78c-.64,1.13-1.26,2.27-1.88,3.41l-.47.85-.46.86-.93,1.71-1.83,3.43-.93,1.77c-.35-.54-.71-1.08-1.07-1.61l-1.09-1.63-1.1-1.63-1.1-1.62-1.12-1.61c-.75-1.08-1.51-2.15-2.28-3.21-.06-.09-.13-.11-.22-.06-.09.05-.11.13-.06.22.56,1.18,1.14,2.36,1.72,3.53l.89,1.76.9,1.75.91,1.74.91,1.74c.61,1.16,1.22,2.31,1.85,3.46l.9,1.66,1.07-1.67c.7-1.1,1.38-2.2,2.07-3.3l2.05-3.31,1.02-1.66,1.01-1.66c.51-.84,1.02-1.68,1.53-2.52.4,0,12.69-.05,13.18-.06l-2.11,3.35c-.6.95-1.21,1.9-1.82,2.85l-1.82,2.85-7.3,11.39-.39.59.39.55,6.33,9.23,6.34,9.22,3.17,4.6,3.18,4.6c2.12,3.07,4.25,6.14,6.39,9.19.06.09.13.1.21.04.09-.05.1-.13.05-.21h0Z"/>
      </g>
      <g class="cls-3">
        <path class="cls-1" d="m40.93,56.42l-.89-1.76-.9-1.74-.91-1.74-.91-1.74c-.61-1.16-1.22-2.31-1.84-3.46l-.9-1.66-1.07,1.68c-.7,1.09-1.38,2.19-2.07,3.29l-2.05,3.31-1.02,1.66-.51.82-.5.83c-.51.84-1.02,1.68-1.52,2.53-.41,0-12.69.05-13.18.06l2.1-3.35c.6-.95,1.21-1.9,1.82-2.85l1.82-2.85,7.3-11.39.38-.59-.38-.55-6.33-9.21-9.52-13.8-3.18-4.59C4.58,6.23,2.45,3.18.31.13c-.06-.08-.13-.09-.21-.04C.02.14,0,.21.05.3c1.98,3.16,3.97,6.31,5.96,9.46l2.98,4.72,2.99,4.72,5.99,9.43,5.63,8.83-7.24,10.63-1.91,2.79c-.64.93-1.27,1.86-1.91,2.79l-3.85,5.56-1.56,2.25,20.55.14.44-.78c.63-1.14,1.25-2.27,1.88-3.41l.47-.85,1.39-2.56,1.82-3.43.93-1.77,1.07,1.61,1.09,1.64,2.21,3.25,1.11,1.61c.75,1.08,1.51,2.15,2.28,3.21.06.07.13.09.21.04.08-.05.1-.11.06-.2-.56-1.18-1.13-2.36-1.72-3.54Z"/>
      </g>
    </g>
  </g>
</svg>