<?xml version="1.0" encoding="UTF-8"?>
<svg id="Layer_2" data-name="Layer 2" xmlns="http://www.w3.org/2000/svg" xmlns:xlink="http://www.w3.org/1999/xlink" viewBox="0 0 68 68">
  <defs>
    <style>
      .cls-1 {
        fill: none;
      }

      .cls-1, .cls-2, .cls-3 {
        stroke-width: 0px;
      }

      .cls-2 {
        fill: #e42f28;
      }

      .cls-3 {
        fill: #fff;
      }

      .cls-4 {
        clip-path: url(#clippath);
      }
    </style>
    <clipPath id="clippath">
      <rect class="cls-1" x="0" y="0" width="68" height="68"/>
    </clipPath>
  </defs>
  <g id="Layer_1-2" data-name="Layer 1">
    <g>
      <g class="cls-4">
        <path class="cls-2" d="m68,57.67c0,5.7-4.63,10.33-10.33,10.33H10.34c-5.7,0-10.34-4.64-10.34-10.33V10.33C0,4.64,4.64,0,10.34,0h47.33c5.7,0,10.33,4.64,10.33,10.33v47.33Z"/>
      </g>
      <path class="cls-3" d="m58.1,34.54c0,3.76,0,7.74-.84,11.39-.59,2.56-2.68,4.44-5.21,4.73-5.97.66-12.03.67-18.04.66-6.03,0-12.06,0-18.05-.66-2.52-.29-4.62-2.17-5.21-4.73-.84-3.64-.84-7.63-.84-11.39s.01-7.74.84-11.39c.59-2.56,2.68-4.44,5.21-4.73,5.98-.67,12.03-.67,18.05-.67s12.06,0,18.04.67c2.52.29,4.63,2.17,5.21,4.73.84,3.65.84,7.63.84,11.39Z"/>
      <path class="cls-2" d="m28.94,25.58v18.01l13.98-9.01-13.98-8.99Z"/>
    </g>
  </g>
</svg>